<svg width="67" height="26" viewBox="0 0 67 26" fill="none" xmlns="http://www.w3.org/2000/svg">
<path d="M61.1982 19.6832H48.3331V19.4185C48.3331 16.1187 51.0109 13.444 54.3145 13.444H55.2174C58.521 13.444 61.1988 16.1187 61.1988 19.4185V19.6832H61.1982Z" fill="#424242"/>
<path d="M21.9511 19.6832H9.08545V19.4185C9.08545 16.1187 11.7632 13.444 15.0668 13.444H15.9697C19.2733 13.444 21.9511 16.1187 21.9511 19.4185V19.6832Z" fill="#424242"/>
<path d="M10.6972 20.0472H10.7002C10.7002 20.0309 10.6996 20.0151 10.6996 19.9994C10.6996 19.9836 10.7002 19.9673 10.7002 19.9515H10.6972C10.682 19.9509 10.6705 19.9388 10.6705 19.9237L10.6742 19.7898C10.6748 19.7747 10.6869 19.7631 10.7021 19.7631H10.7045C10.7057 19.731 10.7081 19.6989 10.7099 19.6668H10.7069C10.6917 19.6656 10.6808 19.6523 10.682 19.6372L10.6936 19.5039C10.6948 19.4888 10.7081 19.4779 10.7233 19.4791H10.7257C10.7287 19.447 10.733 19.4155 10.7366 19.3834L10.7342 19.3828C10.719 19.3803 10.7087 19.367 10.7112 19.3519L10.7299 19.2192C10.7324 19.2041 10.7457 19.1938 10.7609 19.1962L10.7633 19.1968C10.7682 19.1653 10.7736 19.1332 10.7797 19.1017L10.7779 19.1011C10.7633 19.0981 10.7536 19.0836 10.7566 19.069L10.7833 18.9376C10.7863 18.923 10.8009 18.9134 10.8155 18.9164L10.8173 18.917C10.8239 18.8855 10.8312 18.8546 10.8391 18.8231L10.8373 18.8225C10.8227 18.8189 10.8142 18.8037 10.8179 18.7892L10.8518 18.6596C10.8555 18.645 10.8706 18.6366 10.8852 18.6402L10.8864 18.6408C10.8949 18.6099 10.9046 18.579 10.9137 18.5481L10.9125 18.5475C10.8979 18.5427 10.8906 18.5275 10.8949 18.513L10.9361 18.3858C10.941 18.3713 10.9561 18.364 10.9707 18.3682L10.9719 18.3688C10.9822 18.3386 10.9931 18.3083 11.004 18.278L11.0028 18.2774C10.9889 18.2719 10.9816 18.2562 10.9871 18.2422L11.0356 18.1175C11.041 18.1035 11.0568 18.0969 11.0707 18.1017L11.0726 18.1023C11.0847 18.0727 11.0974 18.043 11.1102 18.0139L11.1083 18.0133C11.0944 18.0072 11.0889 17.9909 11.095 17.9776L11.1508 17.8558C11.1568 17.8419 11.1732 17.8364 11.1866 17.8425L11.1878 17.8431C11.2017 17.814 11.2163 17.7856 11.2308 17.7565L11.229 17.7559C11.2157 17.7486 11.2108 17.7323 11.2175 17.7189L11.2799 17.6008C11.2872 17.5875 11.3036 17.5826 11.3169 17.5893L11.3187 17.5905C11.3345 17.5627 11.3503 17.5342 11.366 17.5063L11.3642 17.5051C11.3515 17.4972 11.3472 17.4809 11.3551 17.4676L11.4243 17.3531C11.4321 17.3404 11.4485 17.3361 11.4619 17.344L11.4637 17.3452C11.4807 17.318 11.4982 17.2913 11.5158 17.2641L11.514 17.2628C11.5019 17.2544 11.4982 17.2374 11.5067 17.2253L11.5825 17.1151C11.591 17.1029 11.608 17.0993 11.6201 17.1078L11.6219 17.109C11.6407 17.083 11.6595 17.0569 11.6789 17.0315L11.6771 17.0303C11.665 17.0212 11.6632 17.0042 11.6723 16.9921L11.7541 16.8861C11.7632 16.874 11.7802 16.8722 11.7923 16.8813L11.7948 16.8831C11.8148 16.8582 11.8354 16.8334 11.856 16.8086L11.8542 16.8068C11.8427 16.7971 11.8415 16.7795 11.8512 16.7686L11.9391 16.6674C11.9488 16.6559 11.9664 16.6547 11.9773 16.6644L11.9791 16.6662C12.0003 16.6426 12.0222 16.619 12.0446 16.5954L12.0428 16.5936C12.0319 16.5833 12.0319 16.5657 12.0422 16.5554L12.1355 16.4591C12.1459 16.4482 12.1634 16.4482 12.1738 16.4585L12.1756 16.4603C12.1986 16.4379 12.221 16.4155 12.2447 16.3931L12.2429 16.3912C12.2326 16.3803 12.2332 16.3628 12.2447 16.3531L12.3435 16.2628C12.3545 16.2525 12.372 16.2532 12.3817 16.2647L12.3836 16.2671C12.4078 16.2459 12.4321 16.2247 12.4563 16.2041L12.4545 16.2017C12.4448 16.1902 12.4466 16.1732 12.4581 16.1635L12.5618 16.0787C12.5734 16.069 12.5903 16.0708 12.6 16.0823L12.6019 16.0842C12.6273 16.0642 12.6528 16.0448 12.6783 16.0254L12.677 16.0236C12.668 16.0115 12.671 15.9945 12.6831 15.9854L12.7917 15.9067C12.8038 15.8976 12.8208 15.9006 12.8299 15.9128L12.8311 15.9146C12.8571 15.8964 12.8838 15.8776 12.9105 15.8601L12.9093 15.8582C12.9014 15.8455 12.9051 15.8286 12.9172 15.8207L13.03 15.748C13.0427 15.7401 13.0597 15.7438 13.0676 15.7559L13.0688 15.7577C13.0961 15.7407 13.1233 15.7244 13.1512 15.708L13.15 15.7062C13.1428 15.6929 13.147 15.6765 13.1603 15.6693L13.2768 15.6032C13.2901 15.596 13.3065 15.6002 13.3138 15.6135L13.3144 15.6148C13.3429 15.5996 13.3714 15.5845 13.3999 15.5699L13.3993 15.5681C13.3926 15.5548 13.398 15.5384 13.4114 15.5318L13.5314 15.4724C13.5448 15.4658 13.5612 15.4712 13.5678 15.4845L13.5684 15.4863C13.5975 15.4724 13.6266 15.4591 13.6564 15.4464L13.6558 15.4452C13.6497 15.4312 13.6564 15.4155 13.6703 15.4094L13.794 15.3573C13.808 15.3513 13.8237 15.3579 13.8298 15.3719L13.8304 15.3731C13.8601 15.361 13.8904 15.3495 13.9201 15.3379L13.9195 15.3361C13.9147 15.3222 13.922 15.3065 13.9359 15.3016L14.062 15.2568C14.076 15.2519 14.0917 15.2592 14.0966 15.2731L14.0972 15.2744C14.1275 15.2641 14.1584 15.2544 14.1888 15.2447L14.1882 15.2435C14.1839 15.2289 14.1924 15.2138 14.2064 15.2095L14.3349 15.172C14.3495 15.1677 14.3646 15.1762 14.3689 15.1902L14.3695 15.192C14.4004 15.1835 14.4313 15.175 14.4629 15.1671L14.4622 15.1653C14.4586 15.1508 14.4677 15.1363 14.4829 15.1326L14.6132 15.1023C14.6278 15.0987 14.6423 15.1078 14.646 15.1229L14.6466 15.1247C14.6781 15.1181 14.7097 15.112 14.7412 15.106L14.7406 15.1042C14.7381 15.0896 14.7479 15.0751 14.763 15.0727L14.8952 15.0496C14.9098 15.0472 14.9243 15.0569 14.9267 15.072L14.9273 15.0739C14.9589 15.069 14.991 15.0648 15.0225 15.0605V15.0581C15.0207 15.043 15.0316 15.0297 15.0462 15.0278L15.1796 15.0127C15.1948 15.0109 15.2081 15.0218 15.2099 15.0363V15.0387C15.2421 15.0357 15.2736 15.0327 15.3057 15.0303V15.0278C15.3051 15.0127 15.316 15 15.3312 14.9994L15.4652 14.9915C15.4804 14.9909 15.4931 15.0018 15.4937 15.0169C15.4937 15.0169 15.5701 15.0175 15.5701 15.0169L15.5762 15.0139C15.5762 14.9988 15.5737 14.9885 15.5889 14.9885H15.7466C15.7617 14.9885 15.7508 14.9988 15.7508 15.0139L15.7532 15.0169C15.8302 15.0175 15.8739 15.0169 15.8739 15.0169C15.8745 15.0018 15.8739 14.9903 15.8891 14.9915L16.0479 14.9994C16.0631 15 16.0552 15.0133 16.0552 15.0278V15.0303C16.0552 15.0327 16.1395 15.0357 16.1716 15.0387L16.1656 15.0363C16.1674 15.0212 16.1777 15.0109 16.1923 15.0127L16.3238 15.0278C16.339 15.0297 16.3487 15.043 16.3469 15.0581L16.3463 15.0605C16.3784 15.0648 16.41 15.069 16.4415 15.0739V15.072C16.4439 15.0575 16.4579 15.0472 16.473 15.0496L16.6052 15.0727C16.6198 15.0751 16.6301 15.089 16.6276 15.1042L16.627 15.106C16.6586 15.112 16.6901 15.1181 16.7216 15.1247L16.7222 15.1229C16.7259 15.1084 16.7404 15.0993 16.755 15.1023L16.8854 15.1326C16.8999 15.1363 16.909 15.1508 16.906 15.1653L16.9054 15.1671C16.9369 15.175 16.9678 15.1835 16.9987 15.192L16.9994 15.1902C17.0036 15.1756 17.0188 15.1677 17.0333 15.172L17.1619 15.2095C17.1764 15.2138 17.1843 15.2289 17.1801 15.2435L17.1795 15.2447C17.2104 15.2544 17.2407 15.2641 17.271 15.2744L17.2716 15.2731C17.2765 15.2592 17.2922 15.2519 17.3062 15.2568L17.4323 15.3016C17.4463 15.3065 17.4535 15.3222 17.4487 15.3361L17.4481 15.3379C17.4784 15.3495 17.5081 15.361 17.5378 15.3731L17.5384 15.3719C17.5445 15.3579 17.5603 15.3513 17.5742 15.3573L17.6979 15.4094C17.7119 15.4155 17.7179 15.4312 17.7125 15.4452L17.7119 15.4464C17.741 15.4597 17.7707 15.473 17.7998 15.4863L17.8004 15.4845C17.8071 15.4712 17.8234 15.4658 17.8368 15.4724L17.9568 15.5318C17.9702 15.5384 17.9756 15.5548 17.969 15.5681L17.9684 15.5699C17.9969 15.5845 18.0254 15.5996 18.0539 15.6148L18.0545 15.6135C18.0617 15.6002 18.0787 15.596 18.0915 15.6032L18.2079 15.6693C18.2212 15.6765 18.2255 15.6935 18.2182 15.7062L18.217 15.708C18.2449 15.7244 18.2722 15.7407 18.2994 15.7577L18.3007 15.7559C18.3085 15.7432 18.3255 15.7395 18.3383 15.748L18.451 15.8207C18.4638 15.8286 18.4674 15.8455 18.4589 15.8582L18.4577 15.8601C18.4844 15.8782 18.5111 15.8964 18.5371 15.9146L18.5384 15.9128C18.5475 15.9006 18.5644 15.8982 18.5766 15.9067L18.6851 15.9854C18.6972 15.9945 18.6997 16.0115 18.6912 16.0236L18.6893 16.0254C18.7148 16.0448 18.7403 16.0642 18.7658 16.0842L18.7676 16.0823C18.7773 16.0708 18.7943 16.069 18.8058 16.0787L18.9095 16.1635C18.921 16.1732 18.9228 16.1902 18.9131 16.2017L18.9113 16.2041C18.9355 16.2247 18.9598 16.2459 18.9841 16.2671L18.9859 16.2647C18.9962 16.2538 19.0132 16.2532 19.0241 16.2628L19.1229 16.3531C19.1338 16.3634 19.1344 16.3803 19.1247 16.3912L19.1229 16.3931C19.146 16.4155 19.169 16.4379 19.192 16.4603L19.1939 16.4585C19.2048 16.4482 19.2218 16.4482 19.2321 16.4591L19.3254 16.5554C19.3358 16.5663 19.3358 16.5833 19.3248 16.5936L19.323 16.5954C19.3449 16.619 19.3667 16.6426 19.3885 16.6662L19.3903 16.6644C19.4018 16.6547 19.4188 16.6559 19.4285 16.6674L19.5165 16.7686C19.5262 16.7801 19.5249 16.7971 19.5134 16.8068L19.5116 16.8086C19.5322 16.8334 19.5522 16.8582 19.5729 16.8831L19.5753 16.8813C19.5874 16.8722 19.6044 16.8746 19.6135 16.8861L19.6953 16.9921C19.7044 17.0042 19.702 17.0212 19.6905 17.0303L19.6887 17.0315C19.7081 17.0575 19.7269 17.083 19.7457 17.109L19.7475 17.1078C19.7596 17.0993 19.7766 17.1023 19.7851 17.1151L19.8609 17.2253C19.8694 17.2374 19.8663 17.2544 19.8536 17.2628L19.8518 17.2641C19.8694 17.2907 19.887 17.318 19.9039 17.3452L19.9058 17.344C19.9185 17.3361 19.9355 17.3404 19.9434 17.3531L20.0125 17.4676C20.0204 17.4803 20.0161 17.4972 20.0034 17.5051L20.0016 17.5063C20.0179 17.5342 20.0331 17.5621 20.0489 17.5905L20.0507 17.5893C20.064 17.582 20.0804 17.5875 20.0877 17.6008L20.1501 17.7195C20.1574 17.7329 20.1519 17.7492 20.1386 17.7565L20.1368 17.7571C20.1513 17.7856 20.1659 17.8146 20.1798 17.8437L20.1811 17.8431C20.195 17.837 20.2108 17.8431 20.2168 17.8564L20.2726 17.9782C20.2787 17.9921 20.2726 18.0078 20.2593 18.0139L20.2575 18.0145C20.2702 18.0442 20.2829 18.0733 20.2951 18.1029L20.2969 18.1023C20.3108 18.0969 20.3266 18.1035 20.332 18.1181L20.3806 18.2429C20.386 18.2568 20.3793 18.2725 20.3648 18.278L20.3636 18.2786C20.3745 18.3089 20.3854 18.3392 20.3957 18.3694L20.3969 18.3688C20.4115 18.364 20.4266 18.3719 20.4315 18.3864L20.4727 18.5136C20.4776 18.5281 20.4697 18.5433 20.4551 18.5481L20.4539 18.5487C20.463 18.5796 20.4727 18.6099 20.4812 18.6414L20.4824 18.6408C20.497 18.6372 20.5115 18.6456 20.5158 18.6602L20.5497 18.7898C20.5534 18.8043 20.5449 18.8189 20.5303 18.8231L20.5285 18.8237C20.5358 18.8546 20.5431 18.8861 20.5503 18.9176L20.5522 18.917C20.5667 18.914 20.5813 18.9237 20.5843 18.9382L20.611 19.0696C20.614 19.0842 20.6043 19.0987 20.5898 19.1017L20.5879 19.1023C20.5934 19.1338 20.5989 19.1653 20.6043 19.1974L20.6067 19.1968C20.6219 19.1944 20.6352 19.2053 20.6377 19.2198L20.6565 19.3525C20.6589 19.3676 20.6486 19.381 20.6334 19.3834L20.631 19.384C20.6346 19.4155 20.6389 19.4476 20.6419 19.4797H20.6443C20.6595 19.4785 20.6722 19.4894 20.674 19.5045L20.6856 19.6378C20.6868 19.6529 20.6759 19.6656 20.6607 19.6674H20.6577C20.6595 19.6995 20.6619 19.7316 20.6631 19.7638H20.6656C20.6807 19.7631 20.6928 19.7753 20.6934 19.7904L20.6971 19.9243C20.6977 19.9394 20.6856 19.9515 20.6704 19.9521H20.6674C20.6674 19.9679 20.668 19.9842 20.668 20C20.668 20.0163 20.6674 20.0321 20.6674 20.0478H20.6704C20.6856 20.0484 20.6971 20.0605 20.6971 20.0757L20.6934 20.2095C20.6928 20.2247 20.6807 20.2362 20.6656 20.2362H20.6631C20.6619 20.2683 20.6595 20.3004 20.6577 20.3325H20.6607C20.6759 20.3337 20.6868 20.347 20.6856 20.3622L20.674 20.4954C20.6728 20.5106 20.6595 20.5215 20.6443 20.5203H20.6419C20.6389 20.5524 20.6346 20.5839 20.631 20.616L20.6334 20.6166C20.6486 20.619 20.6589 20.6323 20.6565 20.6475L20.6377 20.7801C20.6352 20.7952 20.6219 20.8055 20.6067 20.8031L20.6043 20.8025C20.5995 20.834 20.594 20.8661 20.5879 20.8976L20.5898 20.8982C20.6043 20.9012 20.614 20.9158 20.611 20.9303L20.5843 21.0618C20.5813 21.0763 20.5667 21.086 20.5522 21.083L20.5503 21.0823C20.5437 21.1138 20.5364 21.1447 20.5285 21.1762L20.5303 21.1768C20.5449 21.1805 20.5534 21.1956 20.5497 21.2101L20.5158 21.3398C20.5121 21.3543 20.497 21.3628 20.4824 21.3591L20.4812 21.3585C20.4727 21.3894 20.463 21.4203 20.4539 21.4512L20.4551 21.4518C20.4697 21.4567 20.477 21.4718 20.4727 21.4863L20.4315 21.6135C20.4266 21.6281 20.4115 21.6353 20.3969 21.6311L20.3957 21.6305C20.3854 21.6608 20.3745 21.6911 20.3636 21.7214L20.3648 21.722C20.3787 21.7274 20.386 21.7432 20.3806 21.7571L20.332 21.8819C20.3266 21.8958 20.3108 21.9031 20.2969 21.8976L20.2951 21.897C20.2829 21.9267 20.2702 21.9564 20.2575 21.9854L20.2593 21.986C20.2732 21.9921 20.2787 22.0085 20.2726 22.0218L20.2168 22.1435C20.2108 22.1575 20.1944 22.1629 20.1811 22.1568L20.1798 22.1562C20.1659 22.1853 20.1513 22.2138 20.1368 22.2429L20.1386 22.2435C20.1519 22.2507 20.1568 22.2671 20.1501 22.2804L20.0877 22.3985C20.0804 22.4118 20.064 22.4167 20.0507 22.41L20.0489 22.4088C20.0331 22.4367 20.0173 22.4651 20.0016 22.493L20.0034 22.4942C20.0161 22.5021 20.0204 22.5184 20.0125 22.5318L19.9434 22.6462C19.9355 22.659 19.9191 22.6632 19.9058 22.6553L19.9039 22.6541C19.887 22.6814 19.8694 22.708 19.8518 22.7353L19.8536 22.7365C19.8657 22.745 19.8694 22.7619 19.8609 22.774L19.7851 22.8843C19.7766 22.8964 19.7596 22.9 19.7475 22.8916L19.7457 22.8903C19.7269 22.9164 19.7081 22.9424 19.6887 22.9679L19.6905 22.9691C19.7026 22.9782 19.7044 22.9951 19.6953 23.0072L19.6135 23.1132C19.6044 23.1254 19.5874 23.1272 19.5753 23.1181L19.5729 23.1163C19.5528 23.1411 19.5322 23.1659 19.5116 23.1908L19.5134 23.1926C19.5249 23.2023 19.5262 23.2198 19.5165 23.2307L19.4285 23.3319C19.4188 23.3434 19.4012 23.3446 19.3903 23.3349L19.3885 23.3331C19.3673 23.3567 19.3455 23.3803 19.323 23.404L19.3248 23.4058C19.3358 23.4161 19.3358 23.4336 19.3254 23.4439L19.2321 23.5403C19.2218 23.5512 19.2042 23.5512 19.1939 23.5409L19.192 23.539C19.169 23.5615 19.1466 23.5839 19.1229 23.6063L19.1247 23.6081C19.135 23.619 19.1344 23.6366 19.1229 23.6462L19.0241 23.7365C19.0132 23.7468 18.9956 23.7462 18.9859 23.7347L18.9841 23.7323C18.9598 23.7535 18.9355 23.7747 18.9113 23.7952L18.9131 23.7977C18.9228 23.8092 18.921 23.8261 18.9095 23.8358L18.8058 23.9206C18.7943 23.9303 18.7773 23.9285 18.7676 23.917L18.7658 23.9152C18.7403 23.9352 18.7148 23.9545 18.6893 23.9739L18.6906 23.9757C18.6997 23.9879 18.6966 24.0048 18.6845 24.0139L18.576 24.0926C18.5638 24.1017 18.5468 24.0987 18.5378 24.0866L18.5365 24.0848C18.5105 24.1029 18.4838 24.1217 18.4571 24.1393L18.4583 24.1411C18.4662 24.1538 18.4626 24.1708 18.4504 24.1787L18.3376 24.2507C18.3249 24.2586 18.3079 24.255 18.3001 24.2429L18.2988 24.241C18.2715 24.258 18.2443 24.2744 18.2164 24.2907L18.2176 24.2925C18.2249 24.3058 18.2206 24.3222 18.2073 24.3295L18.0908 24.3955C18.0775 24.4028 18.0611 24.3985 18.0539 24.3852L18.0533 24.384C18.0248 24.3991 17.9963 24.4143 17.9678 24.4288L17.9684 24.4306C17.975 24.4439 17.9696 24.4603 17.9562 24.467L17.8362 24.5263C17.8228 24.533 17.8065 24.5275 17.7998 24.5142L17.7992 24.5124C17.7701 24.5263 17.741 24.5396 17.7113 24.5524L17.7119 24.5536C17.7179 24.5675 17.7113 24.5833 17.6973 24.5893L17.5736 24.6414C17.5597 24.6475 17.5439 24.6408 17.5378 24.6269L17.5372 24.6257C17.5075 24.6378 17.4772 24.6493 17.4475 24.6608L17.4481 24.662C17.4529 24.6759 17.4457 24.6917 17.4317 24.6965L17.3056 24.7413C17.2916 24.7462 17.2759 24.7389 17.271 24.725L17.2704 24.7238C17.2401 24.7341 17.2092 24.7438 17.1788 24.7535L17.1795 24.7547C17.1837 24.7692 17.1752 24.7843 17.1613 24.7886L17.0327 24.8261C17.0182 24.8304 17.003 24.8219 16.9987 24.808L16.9981 24.8061C16.9672 24.8146 16.9363 24.8231 16.9048 24.831L16.9054 24.8328C16.909 24.8473 16.8999 24.8619 16.8848 24.8655L16.7544 24.8958C16.7398 24.8994 16.7253 24.8903 16.7216 24.8752L16.721 24.8734C16.6895 24.88 16.658 24.8861 16.6264 24.8922L16.627 24.894C16.6295 24.9085 16.6198 24.923 16.6046 24.9255L16.4724 24.9485C16.4579 24.9509 16.4433 24.9412 16.4409 24.9261L16.4403 24.9243C16.4087 24.9291 16.3766 24.9333 16.3451 24.9376V24.94C16.3469 24.9552 16.336 24.9685 16.3214 24.9703L16.188 24.9854C16.1729 24.9873 16.1595 24.9763 16.1577 24.9618V24.9594C16.1256 24.9624 16.094 24.9654 16.0619 24.9679V24.9703C16.0625 24.9854 16.0516 24.9982 16.0364 24.9988L15.9024 25.0066C15.8872 25.0072 15.8824 24.9933 15.8818 24.9782H15.8551C15.823 24.9794 15.8575 24.9806 15.7799 24.9812V25.0097H15.5865V24.9812C15.5865 24.9806 15.5034 24.9794 15.4713 24.9782L15.484 24.9788C15.4834 24.9939 15.4731 25.0078 15.4585 25.0066L15.3276 24.9988C15.3124 24.9982 15.3027 24.9848 15.3033 24.9703L15.3039 24.9679C15.2718 24.9654 15.2402 24.9624 15.2081 24.9594V24.9618C15.2063 24.977 15.1929 24.9873 15.1778 24.9854L15.0444 24.9703C15.0292 24.9685 15.0189 24.9552 15.0207 24.94V24.9376C14.9886 24.9333 14.9571 24.9291 14.9255 24.9243L14.9249 24.9261C14.9225 24.9406 14.9085 24.9509 14.8934 24.9485L14.7612 24.9255C14.7466 24.923 14.7363 24.9091 14.7388 24.894L14.7394 24.8922C14.7078 24.8861 14.6763 24.88 14.6448 24.8734L14.6442 24.8752C14.6405 24.8897 14.626 24.8988 14.6114 24.8958L14.481 24.8655C14.4665 24.8619 14.4574 24.8473 14.4604 24.8328L14.461 24.831C14.4301 24.8231 14.3986 24.8146 14.3676 24.8061L14.367 24.808C14.3628 24.8225 14.3476 24.8304 14.3331 24.8261L14.2045 24.7886C14.19 24.7843 14.1821 24.7692 14.1863 24.7547L14.1869 24.7535C14.156 24.7438 14.1257 24.7341 14.0954 24.7238L14.0948 24.725C14.0899 24.7389 14.0742 24.7462 14.0602 24.7413L13.9341 24.6965C13.9201 24.6917 13.9129 24.6759 13.9177 24.662L13.9183 24.6608C13.888 24.6493 13.8583 24.6378 13.8286 24.6257L13.828 24.6269C13.8219 24.6408 13.8061 24.6469 13.7922 24.6414L13.6685 24.5893C13.6545 24.5833 13.6479 24.5675 13.6539 24.5536L13.6545 24.5524C13.6254 24.539 13.5957 24.5257 13.5666 24.5124L13.566 24.5142C13.5593 24.5275 13.543 24.533 13.5296 24.5263L13.4096 24.467C13.3962 24.4603 13.3908 24.4439 13.3974 24.4306L13.398 24.4288C13.3695 24.4143 13.341 24.3991 13.3125 24.384L13.3119 24.3852C13.3047 24.3985 13.2877 24.4028 13.2749 24.3955L13.1585 24.3295C13.1452 24.3222 13.1409 24.3052 13.1482 24.2925L13.1494 24.2907C13.1215 24.2744 13.0942 24.258 13.067 24.241L13.0657 24.2429C13.0579 24.2556 13.0409 24.2592 13.0281 24.2507L12.9154 24.1787C12.9026 24.1708 12.899 24.1538 12.9075 24.1411L12.9087 24.1393C12.882 24.1211 12.8553 24.1029 12.8293 24.0848L12.828 24.0866C12.8189 24.0987 12.802 24.1011 12.7898 24.0926L12.6813 24.0139C12.6692 24.0048 12.6667 23.9879 12.6752 23.9757L12.6764 23.9739C12.651 23.9545 12.6255 23.9352 12.6 23.9152L12.5982 23.917C12.5885 23.9285 12.5715 23.9303 12.56 23.9206L12.4563 23.8358C12.4448 23.8261 12.443 23.8092 12.4527 23.7977L12.4545 23.7952C12.4303 23.7747 12.406 23.7535 12.3817 23.7323L12.3799 23.7341C12.3696 23.745 12.3526 23.7456 12.3417 23.7359L12.2429 23.6456C12.232 23.6353 12.2314 23.6184 12.2411 23.6075L12.2429 23.6057C12.2198 23.5833 12.1968 23.5608 12.1738 23.5384L12.1719 23.5403C12.161 23.5505 12.144 23.5505 12.1337 23.5396L12.0403 23.4433C12.03 23.4324 12.03 23.4155 12.041 23.4052L12.0428 23.4034C12.0209 23.3797 11.9991 23.3561 11.9773 23.3325L11.9755 23.3343C11.9639 23.344 11.947 23.3428 11.9373 23.3313L11.8493 23.2301C11.8396 23.2186 11.8408 23.2017 11.8524 23.192L11.8542 23.1902C11.8336 23.1653 11.8136 23.1405 11.7929 23.1157L11.7905 23.1175C11.7784 23.1266 11.7614 23.1241 11.7523 23.1126L11.6705 23.0066C11.6614 22.9945 11.6638 22.9776 11.6753 22.9685L11.6771 22.9673C11.6577 22.9412 11.6389 22.9158 11.6201 22.8897L11.6183 22.8909C11.6062 22.8994 11.5892 22.8964 11.5807 22.8837L11.5049 22.7734C11.4964 22.7613 11.4995 22.7444 11.5122 22.7359L11.514 22.7347C11.4964 22.708 11.4788 22.6808 11.4619 22.6535L11.46 22.6547C11.4473 22.6626 11.4303 22.6584 11.4224 22.6456L11.3533 22.5312C11.3454 22.5184 11.3497 22.5015 11.3624 22.4936L11.3642 22.4924C11.3479 22.4645 11.3327 22.4367 11.3169 22.4082L11.3151 22.4094C11.3018 22.4167 11.2854 22.4112 11.2781 22.3979L11.2157 22.2798C11.2084 22.2665 11.2138 22.2501 11.2272 22.2429L11.229 22.2422C11.2145 22.2138 11.1999 22.1847 11.186 22.1556L11.1847 22.1562C11.1708 22.1623 11.155 22.1562 11.149 22.1429L11.0932 22.0212C11.0871 22.0072 11.0932 21.9915 11.1065 21.9854L11.1083 21.9848C11.0956 21.9552 11.0829 21.9261 11.0707 21.8964L11.0695 21.897C11.0556 21.9025 11.0398 21.8958 11.0344 21.8813L10.9858 21.7565C10.9804 21.7426 10.9871 21.7268 11.0016 21.7214L11.0028 21.7207C10.9919 21.6905 10.981 21.6602 10.9707 21.6299L10.9695 21.6305C10.9549 21.6353 10.9398 21.6275 10.9349 21.6129L10.8937 21.4857C10.8888 21.4712 10.8967 21.4561 10.9113 21.4512L10.9125 21.4506C10.9034 21.4197 10.8937 21.3894 10.8852 21.3579L10.884 21.3585C10.8694 21.3622 10.8549 21.3537 10.8506 21.3392L10.8167 21.2095C10.813 21.195 10.8215 21.1805 10.8361 21.1762L10.8379 21.1756C10.8306 21.1447 10.8233 21.1132 10.8161 21.0817L10.8142 21.0823C10.7997 21.0854 10.7851 21.0757 10.7821 21.0611L10.7554 20.9297C10.7524 20.9152 10.7621 20.9006 10.7766 20.8976L10.7785 20.897C10.773 20.8655 10.7675 20.834 10.7621 20.8019L10.7597 20.8025C10.7445 20.8049 10.7312 20.7946 10.7287 20.7795L10.7099 20.6469C10.7075 20.6317 10.7178 20.6184 10.733 20.616L10.7354 20.6154C10.7318 20.5839 10.7275 20.5518 10.7245 20.5197H10.7221C10.7069 20.5209 10.6942 20.51 10.6924 20.4948L10.6808 20.3616C10.6796 20.3464 10.6905 20.3337 10.7057 20.3319H10.7087C10.7069 20.2998 10.7045 20.2677 10.7033 20.2356H10.7008C10.6857 20.2362 10.6736 20.2241 10.6729 20.2089L10.6693 20.0751C10.6705 20.0599 10.6827 20.0472 10.6972 20.0472Z" fill="#4F4F4F"/>
<path d="M12.5533 20.0036C12.5533 18.2701 13.965 16.86 15.7005 16.86C17.436 16.86 18.8476 18.2701 18.8476 20.0036C18.8476 21.7371 17.436 23.1471 15.7005 23.1471C13.965 23.1471 12.5533 21.7365 12.5533 20.0036ZM12.6128 20.0036C12.6128 21.7044 13.9978 23.0878 15.7005 23.0878C17.4032 23.0878 18.7882 21.7044 18.7882 20.0036C18.7882 18.3028 17.4032 16.9194 15.7005 16.9194C13.9984 16.9194 12.6128 18.3028 12.6128 20.0036Z" fill="#424242"/>
<path d="M16.4746 22.8C18.0214 22.3728 18.9285 20.774 18.5008 19.229C18.0732 17.6841 16.4726 16.7779 14.9258 17.2051C13.3791 17.6323 12.472 19.2311 12.8996 20.7761C13.3273 22.321 14.9279 23.2272 16.4746 22.8Z" fill="#454545"/>
<g opacity="0.05">
<path d="M11.6262 20.0036C11.6262 17.7595 13.4539 15.934 15.7005 15.934C17.9472 15.934 19.7748 17.7595 19.7748 20.0036C19.7748 22.2477 17.9472 24.0733 15.7005 24.0733C13.4539 24.0733 11.6262 22.2477 11.6262 20.0036ZM11.7032 20.0036C11.7032 22.2053 13.4963 23.9963 15.7005 23.9963C17.9047 23.9963 19.6978 22.2053 19.6978 20.0036C19.6978 17.8019 17.9047 16.0109 15.7005 16.0109C13.4963 16.0109 11.7032 17.8019 11.7032 20.0036Z" fill="white"/>
</g>
<path d="M16.4072 22.5685C17.826 22.1788 18.66 20.714 18.2699 19.2968C17.8798 17.8795 16.4133 17.0465 14.9945 17.4362C13.5756 17.8258 12.7417 19.2906 13.1318 20.7079C13.5219 22.1251 14.9883 22.9581 16.4072 22.5685Z" fill="#4F4F4F"/>
<path d="M15.9145 18.5148C16.1043 18.5342 16.2753 18.5784 16.4493 18.6439C16.4063 18.5009 16.3614 18.3525 16.3614 18.2023V17.1423C16.091 17.0024 15.8266 16.9843 15.6853 16.9843C15.356 16.9843 15.125 17.0824 15.0092 17.1423V18.2023C15.0092 18.3525 14.9795 18.5009 14.937 18.6439C15.1195 18.5748 15.3087 18.5294 15.5094 18.5118C15.581 18.1436 15.6865 17.5948 15.6865 17.5948L15.9145 18.5148Z" fill="#D9D9D9"/>
<path d="M14.5228 19.0472C14.6344 18.8928 14.7624 18.7595 14.9061 18.642C14.7611 18.6075 14.6138 18.5651 14.4834 18.49L13.5647 17.96C13.2985 18.1405 13.1566 18.3495 13.0857 18.4718C12.9214 18.7565 12.891 19.0042 12.8813 19.1423L13.8 19.6723C13.9304 19.7474 14.0438 19.8486 14.1463 19.957C14.1778 19.7644 14.233 19.5784 14.3179 19.3961C14.0347 19.1502 13.6114 18.7844 13.6114 18.7844L14.5228 19.0472Z" fill="#D9D9D9"/>
<path d="M14.2888 20.5173C14.2106 20.3434 14.159 20.1666 14.1293 19.983C14.0268 20.0915 13.9165 20.1974 13.7861 20.2726L12.8674 20.8025C12.8911 21.1236 13.0008 21.3501 13.0718 21.473C13.2361 21.7577 13.4362 21.9079 13.5508 21.9848L14.4695 21.4549C14.5999 21.3798 14.7442 21.3319 14.8891 21.298C14.7381 21.1744 14.6041 21.0339 14.4889 20.8692C14.1342 20.9915 13.6054 21.1744 13.6054 21.1744L14.2888 20.5173Z" fill="#D9D9D9"/>
<path d="M15.4457 21.4548C15.2559 21.4354 15.0704 21.3912 14.8964 21.3258C14.9394 21.4687 14.9697 21.6171 14.9697 21.7674V22.8273C15.2402 22.9672 15.5046 22.9854 15.6459 22.9854C15.9751 22.9854 16.2062 22.8873 16.322 22.8273V21.7674C16.322 21.6171 16.3662 21.4687 16.4087 21.3258C16.2262 21.3949 16.0442 21.4403 15.8435 21.4578C15.772 21.8261 15.6695 22.3749 15.6695 22.3749L15.4457 21.4548Z" fill="#D9D9D9"/>
<path d="M16.8374 20.9224C16.7259 21.0769 16.5949 21.2156 16.4512 21.3331C16.5961 21.3676 16.7404 21.4155 16.8708 21.4906L17.7895 22.0206C18.0557 21.8401 18.1976 21.6311 18.2685 21.5087C18.4328 21.2241 18.4632 20.9763 18.4729 20.8382L17.5542 20.3083C17.4238 20.2331 17.3135 20.1265 17.2116 20.0181C17.18 20.2107 17.1267 20.3937 17.0418 20.576C17.325 20.8219 17.7494 21.1865 17.7494 21.1865L16.8374 20.9224Z" fill="#D9D9D9"/>
<path d="M17.0715 19.453C17.1498 19.6269 17.2043 19.8098 17.234 19.9927C17.3365 19.8843 17.4499 19.7837 17.5803 19.7086L18.499 19.1787C18.4753 18.8576 18.3656 18.6311 18.2946 18.5081C18.1303 18.2235 17.9302 18.0733 17.8156 17.9963L16.8969 18.5263C16.7665 18.6014 16.6192 18.6438 16.4742 18.6777C16.6252 18.8013 16.7574 18.9388 16.8732 19.1035C17.228 18.9812 17.7561 18.7965 17.7561 18.7965L17.0715 19.453Z" fill="#D9D9D9"/>
<path d="M15.7005 16.7068C13.8777 16.7068 12.3999 18.1829 12.3999 20.0036C12.3999 21.8243 13.8777 23.3004 15.7005 23.3004C17.5232 23.3004 19.001 21.8243 19.001 20.0036C19.001 18.1829 17.5232 16.7068 15.7005 16.7068ZM15.7005 22.9061C14.0954 22.9061 12.7947 21.6062 12.7947 20.0036C12.7947 18.4003 14.096 17.1011 15.7005 17.1011C17.3056 17.1011 18.6062 18.4009 18.6062 20.0036C18.6069 21.6068 17.3056 22.9061 15.7005 22.9061Z" fill="#E6E6E6"/>
<path d="M16.0416 21.5244C16.8853 21.3277 17.4096 20.4852 17.2128 19.6425C17.0159 18.7998 16.1724 18.276 15.3288 18.4726C14.4851 18.6692 13.9607 19.5118 14.1576 20.3545C14.3544 21.1972 15.1979 21.721 16.0416 21.5244Z" fill="#E6E6E6"/>
<path d="M15.4452 19.9988C15.4452 19.8655 15.5531 19.7577 15.6865 19.7577C15.8199 19.7577 15.9279 19.8655 15.9279 19.9988C15.9279 20.132 15.8199 20.2398 15.6865 20.2398C15.5531 20.2398 15.4452 20.132 15.4452 19.9988Z" fill="#4F4F4F"/>
<path d="M15.5568 19.0157C15.5568 18.9443 15.615 18.8867 15.6859 18.8867C15.7569 18.8867 15.8151 18.9449 15.8151 19.0157C15.8151 19.0872 15.7569 19.1447 15.6859 19.1447C15.615 19.1447 15.5568 19.0872 15.5568 19.0157Z" fill="#4F4F4F"/>
<path d="M14.7727 19.6178C14.7108 19.582 14.6896 19.5027 14.7254 19.4409C14.7612 19.3791 14.84 19.3579 14.9025 19.3936C14.9643 19.4294 14.9855 19.5081 14.9498 19.5705C14.914 19.6323 14.8345 19.6535 14.7727 19.6178Z" fill="#4F4F4F"/>
<path d="M14.9031 20.5978C14.8412 20.6335 14.7618 20.6123 14.726 20.5506C14.6902 20.4888 14.7115 20.4094 14.7733 20.3737C14.8352 20.338 14.9146 20.3592 14.9504 20.4209C14.9861 20.4827 14.9649 20.5621 14.9031 20.5978Z" fill="#4F4F4F"/>
<path d="M15.8175 20.9745C15.8175 21.046 15.7593 21.1035 15.6884 21.1035C15.6168 21.1035 15.5592 21.0454 15.5592 20.9745C15.5592 20.9031 15.6174 20.8455 15.6884 20.8455C15.7593 20.8455 15.8175 20.9031 15.8175 20.9745Z" fill="#4F4F4F"/>
<path d="M16.6016 20.3725C16.6634 20.4082 16.6846 20.4875 16.6489 20.5493C16.6131 20.6111 16.5342 20.6323 16.4718 20.5966C16.4099 20.5608 16.3887 20.4821 16.4245 20.4197C16.4603 20.3579 16.5397 20.3367 16.6016 20.3725Z" fill="#4F4F4F"/>
<path d="M16.4712 19.393C16.533 19.3573 16.6125 19.3785 16.6482 19.4403C16.684 19.5021 16.6628 19.5814 16.6009 19.6171C16.5391 19.6529 16.4597 19.6317 16.4239 19.5699C16.3881 19.5075 16.4093 19.4288 16.4712 19.393Z" fill="#4F4F4F"/>
<path d="M49.96 20.0472H49.9631C49.9631 20.0309 49.9625 20.0151 49.9625 19.9994C49.9625 19.9836 49.9631 19.9673 49.9631 19.9515H49.96C49.9449 19.9509 49.9333 19.9388 49.9333 19.9237L49.937 19.7898C49.9376 19.7747 49.9497 19.7631 49.9649 19.7631H49.9673C49.9685 19.731 49.9709 19.6989 49.9728 19.6668H49.9697C49.9546 19.6656 49.9437 19.6523 49.9449 19.6372L49.9564 19.5039C49.9576 19.4888 49.9709 19.4779 49.9861 19.4791H49.9885C49.9916 19.447 49.9958 19.4155 49.9994 19.3834L49.997 19.3828C49.9819 19.3803 49.9715 19.367 49.974 19.3519L49.9928 19.2192C49.9952 19.2041 50.0085 19.1938 50.0237 19.1962L50.0261 19.1968C50.031 19.1653 50.0364 19.1332 50.0425 19.1017L50.0407 19.1011C50.0261 19.0981 50.0164 19.0836 50.0195 19.069L50.0461 18.9376C50.0492 18.923 50.0637 18.9134 50.0783 18.9164L50.0801 18.917C50.0868 18.8855 50.094 18.8546 50.1019 18.8231L50.1001 18.8225C50.0855 18.8189 50.0771 18.8037 50.0807 18.7892L50.1147 18.6596C50.1183 18.645 50.1335 18.6366 50.148 18.6402L50.1492 18.6408C50.1577 18.6099 50.1674 18.579 50.1765 18.5481L50.1753 18.5475C50.1607 18.5427 50.1535 18.5275 50.1577 18.513L50.1989 18.3858C50.2038 18.3713 50.219 18.364 50.2335 18.3682L50.2347 18.3688C50.245 18.3386 50.2559 18.3083 50.2669 18.278L50.2656 18.2774C50.2517 18.2719 50.2444 18.2562 50.2499 18.2422L50.2984 18.1175C50.3038 18.1035 50.3196 18.0969 50.3336 18.1017L50.3354 18.1023C50.3475 18.0727 50.3602 18.043 50.373 18.0139L50.3712 18.0133C50.3572 18.0072 50.3518 17.9909 50.3578 17.9776L50.4136 17.8558C50.4197 17.8419 50.436 17.8364 50.4494 17.8425L50.4506 17.8431C50.4645 17.814 50.4791 17.7856 50.4936 17.7565L50.4918 17.7559C50.4785 17.7486 50.4736 17.7323 50.4803 17.7189L50.5428 17.6008C50.55 17.5875 50.5664 17.5826 50.5798 17.5893L50.5816 17.5905C50.5973 17.5627 50.6131 17.5342 50.6289 17.5063L50.627 17.5051C50.6143 17.4972 50.6101 17.4809 50.618 17.4676L50.6871 17.3531C50.695 17.3404 50.7113 17.3361 50.7247 17.344L50.7265 17.3452C50.7435 17.318 50.7611 17.2913 50.7786 17.2641L50.7768 17.2628C50.7647 17.2544 50.7611 17.2374 50.7695 17.2253L50.8453 17.1151C50.8538 17.1029 50.8708 17.0993 50.8829 17.1078L50.8848 17.109C50.9036 17.083 50.9224 17.0569 50.9418 17.0315L50.9399 17.0303C50.9278 17.0212 50.926 17.0042 50.9351 16.9921L51.017 16.8861C51.0261 16.874 51.043 16.8722 51.0552 16.8813L51.0576 16.8831C51.0776 16.8582 51.0982 16.8334 51.1188 16.8086L51.117 16.8068C51.1055 16.7971 51.1043 16.7795 51.114 16.7686L51.2019 16.6674C51.2116 16.6559 51.2292 16.6547 51.2401 16.6644L51.2419 16.6662C51.2631 16.6426 51.285 16.619 51.3074 16.5954L51.3056 16.5936C51.2947 16.5833 51.2947 16.5657 51.305 16.5554L51.3984 16.4591C51.4087 16.4482 51.4263 16.4482 51.4366 16.4585L51.4384 16.4603C51.4614 16.4379 51.4839 16.4155 51.5075 16.3931L51.5057 16.3912C51.4954 16.3803 51.496 16.3628 51.5075 16.3531L51.6064 16.2628C51.6173 16.2525 51.6349 16.2532 51.6446 16.2647L51.6464 16.2671C51.6706 16.2459 51.6949 16.2247 51.7191 16.2041L51.7173 16.2017C51.7076 16.1902 51.7094 16.1732 51.721 16.1635L51.8247 16.0787C51.8362 16.069 51.8532 16.0708 51.8629 16.0823L51.8647 16.0842C51.8901 16.0642 51.9156 16.0448 51.9411 16.0254L51.9399 16.0236C51.9308 16.0115 51.9338 15.9945 51.9459 15.9854L52.0545 15.9067C52.0666 15.8976 52.0836 15.9006 52.0927 15.9128L52.0939 15.9146C52.12 15.8964 52.1466 15.8776 52.1733 15.8601L52.1721 15.8582C52.1642 15.8455 52.1679 15.8286 52.18 15.8207L52.2928 15.748C52.3055 15.7401 52.3225 15.7438 52.3304 15.7559L52.3316 15.7577C52.3589 15.7407 52.3862 15.7244 52.4141 15.708L52.4128 15.7062C52.4056 15.6929 52.4098 15.6765 52.4232 15.6693L52.5396 15.6032C52.5529 15.596 52.5693 15.6002 52.5766 15.6135L52.5772 15.6148C52.6057 15.5996 52.6342 15.5845 52.6627 15.5699L52.6621 15.5681C52.6554 15.5548 52.6609 15.5384 52.6742 15.5318L52.7943 15.4724C52.8076 15.4658 52.824 15.4712 52.8306 15.4845L52.8313 15.4863C52.8604 15.4724 52.8895 15.4591 52.9192 15.4464L52.9186 15.4452C52.9125 15.4312 52.9192 15.4155 52.9331 15.4094L53.0568 15.3573C53.0708 15.3513 53.0865 15.3579 53.0926 15.3719L53.0932 15.3731C53.1229 15.361 53.1532 15.3495 53.183 15.3379L53.1824 15.3361C53.1775 15.3222 53.1848 15.3065 53.1987 15.3016L53.3249 15.2568C53.3388 15.2519 53.3546 15.2592 53.3594 15.2731L53.36 15.2744C53.3903 15.2641 53.4213 15.2544 53.4516 15.2447L53.451 15.2435C53.4467 15.2289 53.4552 15.2138 53.4692 15.2095L53.5977 15.172C53.6123 15.1677 53.6274 15.1762 53.6317 15.1902L53.6323 15.192C53.6632 15.1835 53.6941 15.175 53.7257 15.1671L53.7251 15.1653C53.7214 15.1508 53.7305 15.1363 53.7457 15.1326L53.8761 15.1023C53.8906 15.0987 53.9052 15.1078 53.9088 15.1229L53.9094 15.1247C53.9409 15.1181 53.9725 15.112 54.004 15.106L54.0034 15.1042C54.001 15.0896 54.0107 15.0751 54.0258 15.0727L54.158 15.0496C54.1726 15.0472 54.1871 15.0569 54.1896 15.072L54.1902 15.0739C54.2217 15.069 54.2538 15.0648 54.2854 15.0605V15.0581C54.2835 15.043 54.2945 15.0297 54.309 15.0278L54.4424 15.0127C54.4576 15.0109 54.4709 15.0218 54.4727 15.0363V15.0387C54.5049 15.0357 54.5364 15.0327 54.5685 15.0303V15.0278C54.5679 15.0127 54.5789 15 54.594 14.9994L54.728 14.9915C54.7432 14.9909 54.7559 15.0018 54.7565 15.0169C54.7565 15.0169 54.8329 15.0175 54.8329 15.0169L54.839 15.0139C54.839 14.9988 54.8366 14.9885 54.8517 14.9885H55.0094C55.0245 14.9885 55.0136 14.9988 55.0136 15.0139L55.0161 15.0169C55.0931 15.0175 55.1367 15.0169 55.1367 15.0169C55.1373 15.0018 55.1367 14.9903 55.1519 14.9915L55.3108 14.9994C55.3259 15 55.318 15.0133 55.318 15.0278V15.0303C55.318 15.0327 55.4023 15.0357 55.4345 15.0387L55.4284 15.0363C55.4302 15.0212 55.4405 15.0109 55.4551 15.0127L55.5867 15.0278C55.6018 15.0297 55.6115 15.043 55.6097 15.0581L55.6091 15.0605C55.6412 15.0648 55.6728 15.069 55.7043 15.0739V15.072C55.7067 15.0575 55.7207 15.0472 55.7358 15.0496L55.868 15.0727C55.8826 15.0751 55.8929 15.089 55.8905 15.1042L55.8899 15.106C55.9214 15.112 55.9529 15.1181 55.9845 15.1247L55.9851 15.1229C55.9887 15.1084 56.0033 15.0993 56.0178 15.1023L56.1482 15.1326C56.1627 15.1363 56.1718 15.1508 56.1688 15.1653L56.1682 15.1671C56.1997 15.175 56.2306 15.1835 56.2616 15.192L56.2622 15.1902C56.2664 15.1756 56.2816 15.1677 56.2961 15.172L56.4247 15.2095C56.4392 15.2138 56.4471 15.2289 56.4429 15.2435L56.4423 15.2447C56.4732 15.2544 56.5035 15.2641 56.5338 15.2744L56.5344 15.2731C56.5393 15.2592 56.5551 15.2519 56.569 15.2568L56.6951 15.3016C56.7091 15.3065 56.7164 15.3222 56.7115 15.3361L56.7109 15.3379C56.7412 15.3495 56.7709 15.361 56.8006 15.3731L56.8013 15.3719C56.8073 15.3579 56.8231 15.3513 56.837 15.3573L56.9607 15.4094C56.9747 15.4155 56.9813 15.4312 56.9753 15.4452L56.9747 15.4464C57.0038 15.4597 57.0335 15.473 57.0626 15.4863L57.0632 15.4845C57.0699 15.4712 57.0863 15.4658 57.0996 15.4724L57.2197 15.5318C57.233 15.5384 57.2385 15.5548 57.2318 15.5681L57.2312 15.5699C57.2597 15.5845 57.2882 15.5996 57.3167 15.6148L57.3173 15.6135C57.3246 15.6002 57.3415 15.596 57.3543 15.6032L57.4707 15.6693C57.484 15.6765 57.4883 15.6935 57.481 15.7062L57.4798 15.708C57.5077 15.7244 57.535 15.7407 57.5623 15.7577L57.5635 15.7559C57.5714 15.7432 57.5883 15.7395 57.6011 15.748L57.7139 15.8207C57.7266 15.8286 57.7302 15.8455 57.7217 15.8582L57.7205 15.8601C57.7472 15.8782 57.7739 15.8964 57.8 15.9146L57.8012 15.9128C57.8103 15.9006 57.8273 15.8982 57.8394 15.9067L57.9479 15.9854C57.9601 15.9945 57.9625 16.0115 57.954 16.0236L57.9522 16.0254C57.9776 16.0448 58.0031 16.0642 58.0286 16.0842L58.0304 16.0823C58.0401 16.0708 58.0571 16.069 58.0686 16.0787L58.1723 16.1635C58.1838 16.1732 58.1856 16.1902 58.1759 16.2017L58.1741 16.2041C58.1984 16.2247 58.2226 16.2459 58.2469 16.2671L58.2487 16.2647C58.259 16.2538 58.276 16.2532 58.2869 16.2628L58.3857 16.3531C58.3966 16.3634 58.3973 16.3803 58.3876 16.3912L58.3857 16.3931C58.4088 16.4155 58.4318 16.4379 58.4549 16.4603L58.4567 16.4585C58.4676 16.4482 58.4846 16.4482 58.4949 16.4591L58.5883 16.5554C58.5986 16.5663 58.5986 16.5833 58.5877 16.5936L58.5858 16.5954C58.6077 16.619 58.6295 16.6426 58.6513 16.6662L58.6532 16.6644C58.6647 16.6547 58.6817 16.6559 58.6914 16.6674L58.7793 16.7686C58.789 16.7801 58.7878 16.7971 58.7762 16.8068L58.7744 16.8086C58.795 16.8334 58.8151 16.8582 58.8357 16.8831L58.8381 16.8813C58.8502 16.8722 58.8672 16.8746 58.8763 16.8861L58.9582 16.9921C58.9673 17.0042 58.9648 17.0212 58.9533 17.0303L58.9515 17.0315C58.9709 17.0575 58.9897 17.083 59.0085 17.109L59.0103 17.1078C59.0224 17.0993 59.0394 17.1023 59.0479 17.1151L59.1237 17.2253C59.1322 17.2374 59.1292 17.2544 59.1164 17.2628L59.1146 17.2641C59.1322 17.2907 59.1498 17.318 59.1668 17.3452L59.1686 17.344C59.1813 17.3361 59.1983 17.3404 59.2062 17.3531L59.2753 17.4676C59.2832 17.4803 59.2789 17.4972 59.2662 17.5051L59.2644 17.5063C59.2808 17.5342 59.2959 17.5621 59.3117 17.5905L59.3135 17.5893C59.3268 17.582 59.3432 17.5875 59.3505 17.6008L59.4129 17.7195C59.4202 17.7329 59.4148 17.7492 59.4014 17.7565L59.3996 17.7571C59.4142 17.7856 59.4287 17.8146 59.4427 17.8437L59.4439 17.8431C59.4578 17.837 59.4736 17.8431 59.4797 17.8564L59.5354 17.9782C59.5415 17.9921 59.5354 18.0078 59.5221 18.0139L59.5203 18.0145C59.533 18.0442 59.5457 18.0733 59.5579 18.1029L59.5597 18.1023C59.5736 18.0969 59.5894 18.1035 59.5949 18.1181L59.6434 18.2429C59.6488 18.2568 59.6422 18.2725 59.6276 18.278L59.6264 18.2786C59.6373 18.3089 59.6482 18.3392 59.6585 18.3694L59.6597 18.3688C59.6743 18.364 59.6895 18.3719 59.6943 18.3864L59.7355 18.5136C59.7404 18.5281 59.7325 18.5433 59.718 18.5481L59.7167 18.5487C59.7258 18.5796 59.7355 18.6099 59.744 18.6414L59.7452 18.6408C59.7598 18.6372 59.7744 18.6456 59.7786 18.6602L59.8126 18.7898C59.8162 18.8043 59.8077 18.8189 59.7932 18.8231L59.7913 18.8237C59.7986 18.8546 59.8059 18.8861 59.8132 18.9176L59.815 18.917C59.8295 18.914 59.8441 18.9237 59.8471 18.9382L59.8738 19.0696C59.8768 19.0842 59.8671 19.0987 59.8526 19.1017L59.8508 19.1023C59.8562 19.1338 59.8617 19.1653 59.8671 19.1974L59.8696 19.1968C59.8847 19.1944 59.8981 19.2053 59.9005 19.2198L59.9193 19.3525C59.9217 19.3676 59.9114 19.381 59.8962 19.3834L59.8938 19.384C59.8974 19.4155 59.9017 19.4476 59.9047 19.4797H59.9072C59.9223 19.4785 59.935 19.4894 59.9369 19.5045L59.9484 19.6378C59.9496 19.6529 59.9387 19.6656 59.9235 19.6674H59.9205C59.9223 19.6995 59.9247 19.7316 59.926 19.7638H59.9284C59.9435 19.7631 59.9557 19.7753 59.9563 19.7904L59.9599 19.9243C59.9605 19.9394 59.9484 19.9515 59.9332 19.9521H59.9302C59.9302 19.9679 59.9308 19.9842 59.9308 20C59.9308 20.0163 59.9302 20.0321 59.9302 20.0478H59.9332C59.9484 20.0484 59.9599 20.0605 59.9599 20.0757L59.9563 20.2095C59.9557 20.2247 59.9435 20.2362 59.9284 20.2362H59.926C59.9247 20.2683 59.9223 20.3004 59.9205 20.3325H59.9235C59.9387 20.3337 59.9496 20.347 59.9484 20.3622L59.9369 20.4954C59.9357 20.5106 59.9223 20.5215 59.9072 20.5203H59.9047C59.9017 20.5524 59.8974 20.5839 59.8938 20.616L59.8962 20.6166C59.9114 20.619 59.9217 20.6323 59.9193 20.6475L59.9005 20.7801C59.8981 20.7952 59.8847 20.8055 59.8696 20.8031L59.8671 20.8025C59.8623 20.834 59.8568 20.8661 59.8508 20.8976L59.8526 20.8982C59.8671 20.9012 59.8768 20.9158 59.8738 20.9303L59.8471 21.0618C59.8441 21.0763 59.8295 21.086 59.815 21.083L59.8132 21.0823C59.8065 21.1138 59.7992 21.1447 59.7913 21.1762L59.7932 21.1768C59.8077 21.1805 59.8162 21.1956 59.8126 21.2101L59.7786 21.3398C59.775 21.3543 59.7598 21.3628 59.7452 21.3591L59.744 21.3585C59.7355 21.3894 59.7258 21.4203 59.7167 21.4512L59.718 21.4518C59.7325 21.4567 59.7398 21.4718 59.7355 21.4863L59.6943 21.6135C59.6895 21.6281 59.6743 21.6353 59.6597 21.6311L59.6585 21.6305C59.6482 21.6608 59.6373 21.6911 59.6264 21.7214L59.6276 21.722C59.6416 21.7274 59.6488 21.7432 59.6434 21.7571L59.5949 21.8819C59.5894 21.8958 59.5736 21.9031 59.5597 21.8976L59.5579 21.897C59.5457 21.9267 59.533 21.9564 59.5203 21.9854L59.5221 21.986C59.536 21.9921 59.5415 22.0085 59.5354 22.0218L59.4797 22.1435C59.4736 22.1575 59.4572 22.1629 59.4439 22.1568L59.4427 22.1562C59.4287 22.1853 59.4142 22.2138 59.3996 22.2429L59.4014 22.2435C59.4148 22.2507 59.4196 22.2671 59.4129 22.2804L59.3505 22.3985C59.3432 22.4118 59.3268 22.4167 59.3135 22.41L59.3117 22.4088C59.2959 22.4367 59.2802 22.4651 59.2644 22.493L59.2662 22.4942C59.2789 22.5021 59.2832 22.5184 59.2753 22.5318L59.2062 22.6462C59.1983 22.659 59.1819 22.6632 59.1686 22.6553L59.1668 22.6541C59.1498 22.6814 59.1322 22.708 59.1146 22.7353L59.1164 22.7365C59.1286 22.745 59.1322 22.7619 59.1237 22.774L59.0479 22.8843C59.0394 22.8964 59.0224 22.9 59.0103 22.8916L59.0085 22.8903C58.9897 22.9164 58.9709 22.9424 58.9515 22.9679L58.9533 22.9691C58.9654 22.9782 58.9673 22.9951 58.9582 23.0072L58.8763 23.1132C58.8672 23.1254 58.8502 23.1272 58.8381 23.1181L58.8357 23.1163C58.8157 23.1411 58.795 23.1659 58.7744 23.1908L58.7762 23.1926C58.7878 23.2023 58.789 23.2198 58.7793 23.2307L58.6914 23.3319C58.6817 23.3434 58.6641 23.3446 58.6532 23.3349L58.6513 23.3331C58.6301 23.3567 58.6083 23.3803 58.5858 23.404L58.5877 23.4058C58.5986 23.4161 58.5986 23.4336 58.5883 23.4439L58.4949 23.5403C58.4846 23.5512 58.467 23.5512 58.4567 23.5409L58.4549 23.539C58.4318 23.5615 58.4094 23.5839 58.3857 23.6063L58.3876 23.6081C58.3979 23.619 58.3973 23.6366 58.3857 23.6462L58.2869 23.7365C58.276 23.7468 58.2584 23.7462 58.2487 23.7347L58.2469 23.7323C58.2226 23.7535 58.1984 23.7747 58.1741 23.7952L58.1759 23.7977C58.1856 23.8092 58.1838 23.8261 58.1723 23.8358L58.0686 23.9206C58.0571 23.9303 58.0401 23.9285 58.0304 23.917L58.0286 23.9152C58.0031 23.9352 57.9776 23.9545 57.9522 23.9739L57.954 23.9757C57.9631 23.9879 57.9601 24.0048 57.9479 24.0139L57.8394 24.0926C57.8273 24.1017 57.8103 24.0987 57.8012 24.0866L57.8 24.0848C57.7739 24.1029 57.7472 24.1217 57.7205 24.1393L57.7217 24.1411C57.7296 24.1538 57.726 24.1708 57.7139 24.1787L57.6011 24.2507C57.5883 24.2586 57.5714 24.255 57.5635 24.2429L57.5623 24.241C57.535 24.258 57.5077 24.2744 57.4798 24.2907L57.481 24.2925C57.4883 24.3058 57.484 24.3222 57.4707 24.3295L57.3543 24.3955C57.3409 24.4028 57.3246 24.3985 57.3173 24.3852L57.3167 24.384C57.2882 24.3991 57.2597 24.4143 57.2312 24.4288L57.2318 24.4306C57.2385 24.4439 57.233 24.4603 57.2197 24.467L57.0996 24.5263C57.0863 24.533 57.0699 24.5275 57.0632 24.5142L57.0626 24.5124C57.0335 24.5263 57.0044 24.5396 56.9747 24.5524L56.9753 24.5536C56.9813 24.5675 56.9747 24.5833 56.9607 24.5893L56.837 24.6414C56.8231 24.6475 56.8073 24.6408 56.8013 24.6269L56.8006 24.6257C56.7709 24.6378 56.7406 24.6493 56.7109 24.6608L56.7115 24.662C56.7164 24.6759 56.7091 24.6917 56.6951 24.6965L56.569 24.7413C56.5551 24.7462 56.5393 24.7389 56.5344 24.725L56.5338 24.7238C56.5035 24.7341 56.4726 24.7438 56.4423 24.7535L56.4429 24.7547C56.4471 24.7692 56.4386 24.7843 56.4247 24.7886L56.2961 24.8261C56.2816 24.8304 56.2664 24.8219 56.2622 24.808L56.2616 24.8061C56.2306 24.8146 56.1997 24.8231 56.1682 24.831L56.1688 24.8328C56.1724 24.8473 56.1633 24.8619 56.1482 24.8655L56.0178 24.8958C56.0033 24.8994 55.9887 24.8903 55.9851 24.8752L55.9845 24.8734C55.9529 24.88 55.9214 24.8861 55.8899 24.8922L55.8905 24.894C55.8929 24.9085 55.8832 24.923 55.868 24.9255L55.7358 24.9485C55.7213 24.9509 55.7067 24.9412 55.7043 24.9261L55.7037 24.9243C55.6722 24.9291 55.64 24.9333 55.6085 24.9376V24.94C55.6103 24.9552 55.5994 24.9685 55.5848 24.9703L55.4514 24.9854C55.4363 24.9873 55.4229 24.9763 55.4211 24.9618V24.9594C55.389 24.9624 55.3575 24.9654 55.3253 24.9679V24.9703C55.3259 24.9854 55.315 24.9982 55.2998 24.9988L55.1658 25.0066C55.1507 25.0072 55.1458 24.9933 55.1452 24.9782H55.1185C55.0864 24.9794 55.121 24.9806 55.0433 24.9812V25.0097H54.8499V24.9812C54.8499 24.9806 54.7668 24.9794 54.7347 24.9782L54.7474 24.9788C54.7468 24.9939 54.7365 25.0078 54.722 25.0066L54.591 24.9988C54.5758 24.9982 54.5661 24.9848 54.5667 24.9703L54.5673 24.9679C54.5352 24.9654 54.5037 24.9624 54.4715 24.9594V24.9618C54.4697 24.977 54.4564 24.9873 54.4412 24.9854L54.3078 24.9703C54.2926 24.9685 54.2823 24.9552 54.2842 24.94V24.9376C54.252 24.9333 54.2205 24.9291 54.189 24.9243L54.1883 24.9261C54.1859 24.9406 54.172 24.9509 54.1568 24.9485L54.0246 24.9255C54.0101 24.923 53.9998 24.9091 54.0022 24.894L54.0028 24.8922C53.9713 24.8861 53.9397 24.88 53.9082 24.8734L53.9076 24.8752C53.9039 24.8897 53.8894 24.8988 53.8748 24.8958L53.7445 24.8655C53.7299 24.8619 53.7208 24.8473 53.7239 24.8328L53.7245 24.831C53.6935 24.8231 53.662 24.8146 53.6311 24.8061L53.6305 24.808C53.6262 24.8225 53.6111 24.8304 53.5965 24.8261L53.468 24.7886C53.4534 24.7843 53.4455 24.7692 53.4498 24.7547L53.4504 24.7535C53.4194 24.7438 53.3891 24.7341 53.3588 24.7238L53.3582 24.725C53.3534 24.7389 53.3376 24.7462 53.3236 24.7413L53.1975 24.6965C53.1836 24.6917 53.1763 24.6759 53.1811 24.662L53.1817 24.6608C53.1514 24.6493 53.1217 24.6378 53.092 24.6257L53.0914 24.6269C53.0853 24.6408 53.0696 24.6469 53.0556 24.6414L52.9319 24.5893C52.918 24.5833 52.9113 24.5675 52.9174 24.5536L52.918 24.5524C52.8889 24.539 52.8591 24.5257 52.83 24.5124L52.8294 24.5142C52.8228 24.5275 52.8064 24.533 52.7931 24.5263L52.673 24.467C52.6596 24.4603 52.6542 24.4439 52.6609 24.4306L52.6615 24.4288C52.633 24.4143 52.6045 24.3991 52.576 24.384L52.5754 24.3852C52.5681 24.3985 52.5511 24.4028 52.5384 24.3955L52.4219 24.3295C52.4086 24.3222 52.4044 24.3052 52.4116 24.2925L52.4128 24.2907C52.385 24.2744 52.3577 24.258 52.3304 24.241L52.3292 24.2429C52.3213 24.2556 52.3043 24.2592 52.2916 24.2507L52.1788 24.1787C52.1661 24.1708 52.1624 24.1538 52.1709 24.1411L52.1721 24.1393C52.1454 24.1211 52.1188 24.1029 52.0927 24.0848L52.0915 24.0866C52.0824 24.0987 52.0654 24.1011 52.0533 24.0926L51.9447 24.0139C51.9326 24.0048 51.9302 23.9879 51.9387 23.9757L51.9399 23.9739C51.9144 23.9545 51.8889 23.9352 51.8635 23.9152L51.8616 23.917C51.8519 23.9285 51.835 23.9303 51.8234 23.9206L51.7198 23.8358C51.7082 23.8261 51.7064 23.8092 51.7161 23.7977L51.7179 23.7952C51.6937 23.7747 51.6694 23.7535 51.6452 23.7323L51.6433 23.7341C51.633 23.745 51.6161 23.7456 51.6051 23.7359L51.5063 23.6456C51.4954 23.6353 51.4948 23.6184 51.5045 23.6075L51.5063 23.6057C51.4833 23.5833 51.4602 23.5608 51.4372 23.5384L51.4354 23.5403C51.4244 23.5505 51.4075 23.5505 51.3972 23.5396L51.3038 23.4433C51.2935 23.4324 51.2935 23.4155 51.3044 23.4052L51.3062 23.4034C51.2844 23.3797 51.2625 23.3561 51.2407 23.3325L51.2389 23.3343C51.2274 23.344 51.2104 23.3428 51.2007 23.3313L51.1128 23.2301C51.1031 23.2186 51.1043 23.2017 51.1158 23.192L51.1176 23.1902C51.097 23.1653 51.077 23.1405 51.0564 23.1157L51.0539 23.1175C51.0418 23.1266 51.0248 23.1241 51.0157 23.1126L50.9339 23.0066C50.9248 22.9945 50.9272 22.9776 50.9387 22.9685L50.9405 22.9673C50.9211 22.9412 50.9023 22.9158 50.8835 22.8897L50.8817 22.8909C50.8696 22.8994 50.8526 22.8964 50.8441 22.8837L50.7683 22.7734C50.7598 22.7613 50.7629 22.7444 50.7756 22.7359L50.7774 22.7347C50.7598 22.708 50.7423 22.6808 50.7253 22.6535L50.7235 22.6547C50.7107 22.6626 50.6938 22.6584 50.6859 22.6456L50.6167 22.5312C50.6089 22.5184 50.6131 22.5015 50.6258 22.4936L50.6277 22.4924C50.6113 22.4645 50.5961 22.4367 50.5804 22.4082L50.5785 22.4094C50.5652 22.4167 50.5488 22.4112 50.5415 22.3979L50.4791 22.2798C50.4718 22.2665 50.4773 22.2501 50.4906 22.2429L50.4924 22.2422C50.4779 22.2138 50.4633 22.1847 50.4494 22.1556L50.4482 22.1562C50.4342 22.1623 50.4185 22.1562 50.4124 22.1429L50.3566 22.0212C50.3505 22.0072 50.3566 21.9915 50.3699 21.9854L50.3718 21.9848C50.359 21.9552 50.3463 21.9261 50.3342 21.8964L50.333 21.897C50.319 21.9025 50.3032 21.8958 50.2978 21.8813L50.2493 21.7565C50.2438 21.7426 50.2505 21.7268 50.265 21.7214L50.2663 21.7207C50.2553 21.6905 50.2444 21.6602 50.2341 21.6299L50.2329 21.6305C50.2183 21.6353 50.2032 21.6275 50.1983 21.6129L50.1571 21.4857C50.1523 21.4712 50.1601 21.4561 50.1747 21.4512L50.1759 21.4506C50.1668 21.4197 50.1571 21.3894 50.1486 21.3579L50.1474 21.3585C50.1328 21.3622 50.1183 21.3537 50.114 21.3392L50.0801 21.2095C50.0765 21.195 50.0849 21.1805 50.0995 21.1762L50.1013 21.1756C50.094 21.1447 50.0868 21.1132 50.0795 21.0817L50.0777 21.0823C50.0631 21.0854 50.0486 21.0757 50.0455 21.0611L50.0188 20.9297C50.0158 20.9152 50.0255 20.9006 50.0401 20.8976L50.0419 20.897C50.0364 20.8655 50.031 20.834 50.0255 20.8019L50.0231 20.8025C50.0079 20.8049 49.9946 20.7946 49.9922 20.7795L49.9734 20.6469C49.9709 20.6317 49.9812 20.6184 49.9964 20.616L49.9988 20.6154C49.9952 20.5839 49.991 20.5518 49.9879 20.5197H49.9855C49.9703 20.5209 49.9576 20.51 49.9558 20.4948L49.9443 20.3616C49.943 20.3464 49.954 20.3337 49.9691 20.3319H49.9722C49.9703 20.2998 49.9679 20.2677 49.9667 20.2356H49.9643C49.9491 20.2362 49.937 20.2241 49.9364 20.2089L49.9327 20.0751C49.9333 20.0599 49.9449 20.0472 49.96 20.0472Z" fill="#4F4F4F"/>
<path d="M51.8162 20.0036C51.8162 18.2701 53.2278 16.86 54.9633 16.86C56.6988 16.86 58.1104 18.2701 58.1104 20.0036C58.1104 21.7371 56.6988 23.1471 54.9633 23.1471C53.2278 23.1465 51.8162 21.7365 51.8162 20.0036ZM51.8756 20.0036C51.8756 21.7044 53.2606 23.0878 54.9633 23.0878C56.666 23.0878 58.051 21.7044 58.051 20.0036C58.051 18.3028 56.666 16.9194 54.9633 16.9194C53.2606 16.9194 51.8756 18.3028 51.8756 20.0036Z" fill="#424242"/>
<path d="M55.9235 22.7421C57.4378 22.2115 58.2348 20.5552 57.7036 19.0426C57.1724 17.53 55.5142 16.734 53.9998 17.2646C52.4855 17.7952 51.6886 19.4515 52.2198 20.9641C52.7509 22.4767 54.4092 23.2727 55.9235 22.7421Z" fill="#454545"/>
<g opacity="0.05">
<path d="M50.8884 20.0036C50.8884 17.7595 52.7161 15.934 54.9627 15.934C57.2094 15.934 59.037 17.7595 59.037 20.0036C59.037 22.2477 57.2094 24.0733 54.9627 24.0733C52.7167 24.0733 50.8884 22.2477 50.8884 20.0036ZM50.9654 20.0036C50.9654 22.2053 52.7585 23.9963 54.9627 23.9963C57.1669 23.9963 58.96 22.2053 58.96 20.0036C58.96 17.8019 57.1669 16.0109 54.9627 16.0109C52.7585 16.0109 50.9654 17.8019 50.9654 20.0036Z" fill="white"/>
</g>
<path d="M55.7773 22.5368C57.1786 22.0882 57.9505 20.5898 57.5014 19.1901C57.0523 17.7903 55.5522 17.0193 54.1509 17.4679C52.7495 17.9165 51.9776 19.4149 52.4267 20.8146C52.8758 22.2144 54.3759 22.9854 55.7773 22.5368Z" fill="#4F4F4F"/>
<path d="M55.1773 18.5148C55.3671 18.5342 55.5381 18.5784 55.7122 18.6439C55.6691 18.5009 55.6242 18.3525 55.6242 18.2023V17.1423C55.3538 17.0024 55.0894 16.9843 54.9481 16.9843C54.6188 16.9843 54.3878 17.0824 54.272 17.1423V18.2023C54.272 18.3525 54.2423 18.5009 54.1998 18.6439C54.3824 18.5748 54.5715 18.5294 54.7723 18.5118C54.8438 18.1436 54.9493 17.5948 54.9493 17.5948L55.1773 18.5148Z" fill="#D9D9D9"/>
<path d="M53.7856 19.0472C53.8972 18.8928 54.0252 18.7595 54.1689 18.642C54.024 18.6075 53.8766 18.5651 53.7462 18.49L52.8276 17.96C52.5614 18.1405 52.4195 18.3495 52.3485 18.4718C52.1842 18.7565 52.1539 19.0042 52.1442 19.1423L53.0628 19.6723C53.1932 19.7474 53.3066 19.8486 53.4091 19.957C53.4406 19.7644 53.4958 19.5784 53.5807 19.3961C53.2975 19.1502 52.8743 18.7844 52.8743 18.7844L53.7856 19.0472Z" fill="#D9D9D9"/>
<path d="M53.551 20.5173C53.4728 20.3434 53.4212 20.1666 53.3915 19.983C53.289 20.0915 53.1787 20.1974 53.0483 20.2726L52.1296 20.8025C52.1533 21.1236 52.263 21.3501 52.334 21.473C52.4983 21.7577 52.6984 21.9079 52.813 21.9848L53.7317 21.4549C53.8621 21.3798 54.0064 21.3319 54.1513 21.298C54.0003 21.1744 53.8663 21.0339 53.7511 20.8692C53.3964 20.9915 52.8676 21.1744 52.8676 21.1744L53.551 20.5173Z" fill="#D9D9D9"/>
<path d="M54.7086 21.4548C54.5188 21.4354 54.3332 21.3912 54.1592 21.3258C54.2022 21.4687 54.2325 21.6171 54.2325 21.7674V22.8273C54.503 22.9672 54.7674 22.9854 54.9087 22.9854C55.2379 22.9854 55.469 22.8873 55.5848 22.8273V21.7674C55.5848 21.6171 55.6291 21.4687 55.6715 21.3258C55.489 21.3949 55.3071 21.4403 55.1064 21.4578C55.0348 21.8261 54.9323 22.3749 54.9323 22.3749L54.7086 21.4548Z" fill="#D9D9D9"/>
<path d="M56.0996 20.9224C55.9881 21.0769 55.8571 21.2156 55.7134 21.3331C55.8583 21.3676 56.0026 21.4155 56.133 21.4906L57.0517 22.0206C57.3179 21.8401 57.4598 21.6311 57.5307 21.5087C57.695 21.2241 57.7254 20.9763 57.7351 20.8382L56.8164 20.3083C56.686 20.2331 56.5757 20.1265 56.4738 20.0181C56.4423 20.2107 56.3889 20.3937 56.304 20.576C56.5872 20.8219 57.0116 21.1865 57.0116 21.1865L56.0996 20.9224Z" fill="#D9D9D9"/>
<path d="M56.3344 19.453C56.4126 19.6269 56.4671 19.8098 56.4969 19.9927C56.5993 19.8843 56.7127 19.7837 56.8431 19.7086L57.7618 19.1787C57.7381 18.8576 57.6284 18.6311 57.5574 18.5081C57.3931 18.2235 57.193 18.0733 57.0784 17.9963L56.1597 18.5263C56.0293 18.6014 55.882 18.6438 55.7371 18.6777C55.8881 18.8013 56.0202 18.9388 56.1361 19.1035C56.4908 18.9812 57.019 18.7965 57.019 18.7965L56.3344 19.453Z" fill="#D9D9D9"/>
<path d="M54.9633 16.7068C53.1405 16.7068 51.6627 18.1829 51.6627 20.0036C51.6627 21.8243 53.1405 23.3004 54.9633 23.3004C56.7861 23.3004 58.2638 21.8243 58.2638 20.0036C58.2638 18.1829 56.7861 16.7068 54.9633 16.7068ZM54.9633 22.9061C53.3582 22.9061 52.0575 21.6062 52.0575 20.0036C52.0575 18.4003 53.3588 17.1011 54.9633 17.1011C56.5684 17.1011 57.8691 18.4009 57.8691 20.0036C57.8691 21.6068 56.5678 22.9061 54.9633 22.9061Z" fill="#E6E6E6"/>
<path d="M55.3075 21.5202C56.1506 21.3214 56.6727 20.4774 56.4737 19.6352C56.2746 18.793 55.4296 18.2715 54.5865 18.4704C53.7433 18.6692 53.2212 19.5132 53.4203 20.3554C53.6194 21.1976 54.4643 21.7191 55.3075 21.5202Z" fill="#E6E6E6"/>
<path d="M54.708 19.9988C54.708 19.8655 54.8159 19.7577 54.9493 19.7577C55.0828 19.7577 55.1907 19.8655 55.1907 19.9988C55.1907 20.132 55.0828 20.2398 54.9493 20.2398C54.8159 20.2398 54.708 20.132 54.708 19.9988Z" fill="#4F4F4F"/>
<path d="M54.8196 19.0157C54.8196 18.9443 54.8778 18.8867 54.9487 18.8867C55.0203 18.8867 55.0779 18.9449 55.0779 19.0157C55.0779 19.0872 55.0197 19.1447 54.9487 19.1447C54.8772 19.1447 54.8196 19.0872 54.8196 19.0157Z" fill="#4F4F4F"/>
<path d="M54.0355 19.6178C53.9737 19.582 53.9524 19.5027 53.9882 19.4409C54.024 19.3791 54.1028 19.3579 54.1653 19.3936C54.2271 19.4294 54.2484 19.5081 54.2126 19.5705C54.1762 19.6323 54.0974 19.6535 54.0355 19.6178Z" fill="#4F4F4F"/>
<path d="M54.1653 20.5978C54.1034 20.6335 54.024 20.6123 53.9882 20.5506C53.9524 20.4888 53.9737 20.4094 54.0355 20.3737C54.0974 20.338 54.1768 20.3592 54.2126 20.4209C54.2484 20.4827 54.2271 20.5621 54.1653 20.5978Z" fill="#4F4F4F"/>
<path d="M55.0797 20.9745C55.0797 21.046 55.0215 21.1035 54.9506 21.1035C54.879 21.1035 54.8214 21.0454 54.8214 20.9745C54.8214 20.9031 54.8796 20.8455 54.9506 20.8455C55.0221 20.8455 55.0797 20.9031 55.0797 20.9745Z" fill="#4F4F4F"/>
<path d="M55.8638 20.3725C55.9256 20.4082 55.9468 20.4875 55.9111 20.5493C55.8753 20.6111 55.7965 20.6323 55.734 20.5966C55.6721 20.5608 55.6509 20.4821 55.6867 20.4197C55.7231 20.3579 55.8019 20.3367 55.8638 20.3725Z" fill="#4F4F4F"/>
<path d="M55.734 19.393C55.7958 19.3573 55.8753 19.3785 55.9111 19.4403C55.9468 19.5021 55.9256 19.5814 55.8638 19.6171C55.8019 19.6529 55.7225 19.6317 55.6867 19.5699C55.6509 19.5075 55.6721 19.4288 55.734 19.393Z" fill="#4F4F4F"/>
<path d="M63.2538 16.1502C63.2538 16.1254 63.2532 16.1005 63.2532 16.0757C63.2526 16.0539 63.2526 16.0327 63.252 16.0109C63.2513 15.9873 63.2507 15.9636 63.2495 15.94C63.2489 15.9182 63.2477 15.8964 63.2471 15.8746C63.2459 15.8522 63.2453 15.8298 63.2441 15.8074C63.2429 15.7856 63.2416 15.7638 63.2404 15.742C63.2392 15.7208 63.2374 15.6996 63.2362 15.6784C63.2344 15.6559 63.2332 15.6341 63.2313 15.6117C63.2295 15.5917 63.2277 15.5724 63.2259 15.5524C63.2241 15.53 63.2216 15.5069 63.2198 15.4845C63.218 15.4664 63.2162 15.4488 63.2144 15.4306C63.2119 15.407 63.2095 15.3834 63.2065 15.3604C63.2047 15.3446 63.2028 15.3295 63.201 15.3137C63.198 15.2889 63.195 15.2641 63.1913 15.2392C63.1895 15.2277 63.1883 15.2168 63.1865 15.2053C63.1604 15.0175 63.1283 14.8413 63.0931 14.6777C62.9918 14.2065 62.7699 13.7704 62.4546 13.4058L61.1993 11.338C61.1975 11.3295 61.1963 11.321 61.1951 11.3125L61.1636 11.2792L60.0545 9.93759C60.0502 9.98302 60.0454 10.0303 60.0399 10.0787L58.131 8.03874C57.8539 7.74498 57.7005 7.36158 57.7005 6.96424V5.7044V5.47242V3.94183C57.5986 3.74316 57.5489 3.52027 57.5592 3.29434L57.6453 1.44153C57.6538 1.25558 57.5186 1.09446 57.3336 1.07145C53.8087 0.629291 50.0965 0.289497 46.0264 0.119903C43.1849 0.00179283 40.4652 -0.0236463 37.879 0.0217807C36.4164 0.0472198 34.9569 0.179261 33.5149 0.42699C31.7812 0.724991 29.8256 1.20228 27.8015 2.10597C24.3433 3.64928 22.9128 4.46151 20.6116 5.84855L18.6979 6.90246C18.3395 7.09568 17.9563 7.23801 17.5591 7.32705L12.1671 8.52935C10.6451 8.86854 9.2019 9.50573 7.94365 10.4258C7.89938 10.4585 7.85512 10.4912 7.81024 10.5245C7.62408 10.6644 7.44763 10.8062 7.27966 10.9479C6.16452 11.8903 5.26464 13.0612 4.62127 14.3713L3.99063 15.6559C3.71776 16.212 3.67167 16.8528 3.86208 17.4421L4.56791 19.6251C4.61339 19.7662 4.67099 19.9006 4.7383 20.0284C4.53819 20.0563 4.34536 20.0769 4.15799 20.0945C3.89907 20.1187 3.78082 20.4294 3.9591 20.6184C4.3302 21.0121 4.83714 21.2519 5.37864 21.2883L9.88105 21.5911H9.91804L9.92289 21.5917C9.92289 21.5917 9.92289 21.5917 9.92289 21.5911H10.3425C9.94472 20.2562 10.0314 18.7135 10.8222 17.1611C11.2751 16.2719 11.9979 15.5518 12.8923 15.1078C17.1049 13.0145 21.2756 16.02 21.2756 19.9982C21.2756 20.5518 21.1944 21.0866 21.044 21.5911H22.7898L22.7885 21.5869H49.5919C49.1948 20.2501 49.2833 18.7044 50.0783 17.1508C50.5349 16.2592 51.2704 15.5372 52.1697 15.0945C56.3725 13.0278 60.5257 16.0284 60.5257 19.9982C60.5257 20.0914 60.5232 20.1841 60.519 20.2762L61.1593 20.1805H61.1599C61.3606 20.1593 61.5535 20.106 61.7324 20.0242C62.1247 19.8443 62.4473 19.5287 62.628 19.1235C62.8966 18.5221 63.1507 17.7341 63.2301 16.7922C63.2344 16.7426 63.238 16.6929 63.241 16.6438C63.2423 16.6275 63.2429 16.6111 63.2435 16.5942C63.2453 16.5621 63.2471 16.5294 63.2483 16.4979C63.2489 16.4785 63.2495 16.4591 63.2501 16.4391C63.2513 16.4106 63.252 16.3822 63.2526 16.3543C63.2532 16.3331 63.2532 16.3125 63.2538 16.2919C63.2544 16.2659 63.2544 16.2392 63.2544 16.2138C63.2538 16.1926 63.2538 16.1714 63.2538 16.1502ZM50.4609 5.6626C50.4591 5.81463 50.3414 5.94001 50.1898 5.95213L40.4313 6.73347C40.1633 6.75225 39.8959 6.78435 39.6309 6.83038L31.6775 8.17684C30.8923 8.30949 30.0924 8.33129 29.3017 8.24104L24.2366 7.6626C24.0395 7.6408 23.9049 7.45364 23.9461 7.26042L24.1329 6.38701C24.216 5.99816 24.4543 5.65958 24.7932 5.45122C25.0285 5.30646 25.3505 5.11445 25.7762 4.87157C27.072 4.13323 28.2454 3.5342 29.4018 3.05873C33.353 1.43486 37.8645 1.34219 40.6041 1.42214C42.1934 1.45182 43.8707 1.53177 45.625 1.67775C47.5715 1.83947 49.5598 2.1193 50.2511 2.22045C50.3972 2.24165 50.5045 2.36824 50.5027 2.51542L50.4609 5.6626Z" fill="#EBEBEB"/>
<path d="M43.7215 16.3234H20.2526L19.5001 14.5524H43.7215C44.2109 14.5524 44.6081 14.9491 44.6081 15.4379C44.6081 15.9267 44.2115 16.3234 43.7215 16.3234Z" fill="#F7F7F7"/>
<path d="M54.9433 13.5409C58.4537 13.5409 61.3103 16.3356 61.4061 19.8183H61.4067C61.408 19.7723 61.4086 19.7262 61.4086 19.6796C61.4086 16.1133 58.5137 13.2217 54.9433 13.2217C51.3729 13.2217 48.478 16.1133 48.478 19.6796C48.478 19.7286 48.4792 19.7777 48.4805 19.8268C48.5714 16.3398 51.4299 13.5409 54.9433 13.5409Z" fill="white"/>
<path d="M8.30809 15.7141L7.35971 16.1066C7.03772 16.2398 6.80911 16.5306 6.75636 16.8746L6.44164 18.9194C6.38767 19.2707 6.7418 19.5439 7.06864 19.4034L7.71141 19.126C8.03825 18.9848 8.2711 18.6875 8.3281 18.3361L8.70406 16.0266C8.73923 15.8037 8.51669 15.6281 8.30809 15.7141Z" fill="#545454"/>
<path d="M8.30814 15.7141L7.35976 16.1066C7.09659 16.2156 6.89587 16.43 6.80249 16.6923C6.87101 16.6396 6.94681 16.5954 7.02807 16.5621L7.97645 16.1696C8.18505 16.083 8.40759 16.2592 8.37121 16.4821L7.99525 18.7916C7.98433 18.8589 7.96675 18.9243 7.94371 18.9873C8.14563 18.828 8.28449 18.5972 8.32694 18.3367L8.7029 16.0272C8.73928 15.8037 8.51674 15.6281 8.30814 15.7141Z" fill="#4A4A4A"/>
<path d="M53.2241 2.39608C51.0296 2.01086 48.6526 1.68742 46.1094 1.47118C44.2569 1.3137 42.4863 1.22769 40.8078 1.19559C37.9147 1.10958 33.151 1.20952 28.9791 2.9624C27.7584 3.47542 26.519 4.1217 25.151 4.9194C23.974 5.60504 22.1918 6.72255 20.3969 7.9727C20.2114 8.10232 20.2029 8.37427 20.3811 8.51419C20.5109 8.61655 20.6492 8.7177 20.7977 8.81703C21.2756 9.13684 21.7534 9.36519 22.2009 9.52994C22.9092 9.79038 23.6744 9.85701 24.4191 9.73224L39.78 7.03387C40.0595 6.98481 40.3415 6.94968 40.6247 6.92969L50.9253 6.18954C51.6257 6.13926 52.2715 5.78069 52.6717 5.20347C52.8991 4.87518 53.1241 4.48693 53.3157 4.0363C53.4649 3.68499 53.571 3.35065 53.6456 3.04599C53.7195 2.74738 53.5267 2.44877 53.2241 2.39608ZM50.4608 5.66258C50.459 5.81461 50.3414 5.93999 50.1898 5.9521L40.4312 6.73345C40.1632 6.75222 39.8958 6.78433 39.6308 6.83036L31.6775 8.17682C30.8922 8.30946 30.0924 8.33127 29.3017 8.24102L24.2365 7.66258C24.0395 7.64078 23.9048 7.45362 23.9461 7.2604L24.1328 6.38699C24.2159 5.99814 24.4542 5.65955 24.7932 5.4512C25.0285 5.30643 25.3505 5.11443 25.7761 4.87155C27.072 4.13321 28.2453 3.53418 29.4017 3.05871C33.3529 1.43484 37.8644 1.34217 40.6041 1.42212C42.1934 1.4518 43.8706 1.53175 45.6249 1.67773C47.5714 1.83945 49.5597 2.11928 50.251 2.22043C50.3972 2.24163 50.5045 2.36822 50.5027 2.5154L50.4608 5.66258Z" fill="#545454"/>
<path opacity="0.75" d="M50.2511 2.21984C49.5598 2.11869 47.5715 1.83886 45.625 1.67714C43.8701 1.53117 42.1935 1.45122 40.6041 1.42154C37.8645 1.34219 33.3524 1.43426 29.4018 3.05812C28.246 3.53298 27.0721 4.13262 25.7762 4.87096C25.3506 5.11384 25.0286 5.30585 24.7933 5.45061C24.4543 5.65957 24.216 5.99755 24.1329 6.38641L23.9462 7.25982C23.9049 7.45364 24.0395 7.64019 24.2366 7.662L29.3018 8.24043C30.0931 8.33068 30.8929 8.30888 31.6776 8.17623L39.6309 6.82977C39.8959 6.78435 40.1627 6.75225 40.4313 6.73286L50.1899 5.95152C50.3415 5.9394 50.4591 5.81403 50.4609 5.662L50.5028 2.51421C50.5046 2.36763 50.3973 2.24104 50.2511 2.21984Z" fill="#63AAB6"/>
<path d="M58.108 5.83823C58.4348 5.89335 58.8278 6.00358 59.2504 6.2283C59.2723 6.23981 59.2953 6.25192 59.3165 6.26403C58.8302 5.44998 58.3057 4.7601 57.8418 4.19196V5.53962C57.8418 5.68802 57.9613 5.8134 58.108 5.83823Z" fill="#F2F2F2"/>
<path d="M54.4387 2.30768C52.2442 1.92246 49.8672 1.59902 47.324 1.38279C45.4715 1.22531 43.7009 1.1393 42.0224 1.1072C40.7381 1.06904 39.0857 1.06782 37.2793 1.23076C34.7233 1.37067 31.723 1.80859 28.9785 2.96183C27.7578 3.47485 26.5184 4.12113 25.1504 4.91882C23.9734 5.60447 22.1912 6.72197 20.3963 7.97213C20.2107 8.10174 20.2023 8.3737 20.3805 8.51362C20.5103 8.61598 20.6486 8.71713 20.7971 8.81646C21.275 9.13627 21.7528 9.36461 22.2003 9.52936C22.9086 9.78981 23.6738 9.85644 24.4184 9.73166L39.7794 7.0333C40.0589 6.98424 40.3409 6.94911 40.6241 6.92912L50.9247 6.18896C50.9326 6.18836 50.9411 6.18715 50.949 6.18654L52.1393 6.10114C52.8403 6.05087 53.4855 5.6923 53.8857 5.11507C54.1131 4.78678 54.3381 4.39853 54.5297 3.9479C54.6788 3.5966 54.785 3.26225 54.8595 2.95759C54.9347 2.65959 54.7413 2.36098 54.4387 2.30768ZM40.6398 1.19017C40.6235 1.18957 40.6071 1.18957 40.5913 1.18896C40.6071 1.18957 40.6235 1.19017 40.6398 1.19017ZM40.0492 1.17867C40.0334 1.17867 40.0171 1.17806 40.0013 1.17806C40.0171 1.17806 40.0328 1.17806 40.0492 1.17867ZM39.6163 1.17443C39.6053 1.17443 39.5938 1.17443 39.5829 1.17443C39.5944 1.17443 39.6053 1.17443 39.6163 1.17443ZM39.4161 1.17382C39.401 1.17382 39.3864 1.17382 39.3713 1.17382C39.3864 1.17382 39.4016 1.17382 39.4161 1.17382ZM37.5479 1.21743C37.5351 1.21804 37.5218 1.21864 37.5091 1.21925C37.5218 1.21864 37.5345 1.21804 37.5479 1.21743ZM38.9608 1.17624C38.9486 1.17624 38.9359 1.17685 38.9232 1.17685C38.9359 1.17685 38.948 1.17685 38.9608 1.17624ZM38.7418 1.17927C38.7303 1.17927 38.7182 1.17988 38.7067 1.17988C38.7182 1.17988 38.7297 1.17988 38.7418 1.17927ZM38.2695 1.19017C38.2567 1.19078 38.244 1.19078 38.2313 1.19139C38.244 1.19078 38.2567 1.19017 38.2695 1.19017ZM38.0287 1.19744C38.0221 1.19744 38.0148 1.19805 38.0081 1.19805C38.0148 1.19805 38.0215 1.19805 38.0287 1.19744ZM37.7753 1.20713C37.7716 1.20713 37.7674 1.20774 37.7638 1.20774C37.7674 1.20774 37.771 1.20713 37.7753 1.20713ZM50.4608 5.66262C50.459 5.81465 50.3414 5.94002 50.1898 5.95214L40.4312 6.73348C40.1632 6.75226 39.8958 6.78436 39.6308 6.83039L31.6775 8.17685C30.8922 8.3095 30.0924 8.3313 29.3017 8.24105L24.2365 7.66262C24.0395 7.64081 23.9048 7.45365 23.9461 7.26044L24.1328 6.38703C24.2159 5.99817 24.4542 5.65959 24.7932 5.45123C25.0285 5.30647 25.3505 5.11446 25.7761 4.87158C27.072 4.13324 28.2453 3.53421 29.4017 3.05874C33.3529 1.43488 37.8644 1.3422 40.6041 1.42216C42.1934 1.45183 43.8706 1.53179 45.6249 1.67776C47.5714 1.83948 49.5597 2.11931 50.251 2.22046C50.3972 2.24166 50.5045 2.36825 50.5027 2.51543L50.4608 5.66262ZM52.0295 5.82191C52.0338 5.81889 52.038 5.81586 52.0429 5.81283C52.0386 5.81586 52.0344 5.81889 52.0295 5.82191ZM52.2351 5.67352C52.2436 5.66625 52.2521 5.65898 52.2606 5.65171C52.2521 5.65838 52.2442 5.66625 52.2351 5.67352ZM52.5122 5.40762C52.5286 5.38884 52.5444 5.36946 52.5601 5.35008C52.5438 5.36885 52.5286 5.38884 52.5122 5.40762Z" fill="#545454"/>
<path d="M51.7355 2.90607C52.0926 2.90728 52.4492 2.90788 52.8064 2.9091C52.8676 2.9091 52.9137 2.96482 52.9022 3.02539C52.8367 3.37185 52.7208 3.83157 52.5086 4.29553C52.2655 4.82854 51.9768 5.23375 51.7421 5.51539C51.7397 4.65955 51.7373 3.76191 51.7355 2.90607Z" fill="#4A4A4A"/>
<path opacity="0.2" d="M46.7753 1.78497L40.9419 6.69291L44.4723 6.41005L49.5677 2.12295C48.8716 2.02725 47.8601 1.89642 46.7753 1.78497Z" fill="white"/>
<path opacity="0.2" d="M50.5027 2.51481C50.5039 2.42638 50.4657 2.34522 50.4032 2.2901L45.6158 6.31796L47.6939 6.1514L50.4863 3.80191L50.5027 2.51481Z" fill="white"/>
<path opacity="0.2" d="M44.3606 1.58264L37.7432 7.15018L38.9553 6.94485L45.252 1.64745C44.9525 1.62443 44.6553 1.60202 44.3606 1.58264Z" fill="white"/>
<path opacity="0.2" d="M35.6129 1.58448L27.8925 8.07994L29.3017 8.24105C29.8183 8.2998 30.338 8.31071 30.8559 8.27497L39.0226 1.40277C37.9954 1.40943 36.8354 1.45607 35.6129 1.58448Z" fill="white"/>
<path opacity="0.2" d="M40.6035 1.42153C40.4264 1.41669 40.2415 1.41184 40.0505 1.40881L32.0892 8.10718L34.4426 7.70863L41.8745 1.45606C41.4451 1.44092 41.0213 1.42941 40.6035 1.42153Z" fill="white"/>
<path d="M52.3079 11.536C51.4917 11.536 50.8278 10.8728 50.8278 10.0575C50.8278 9.24228 51.4917 8.57904 52.3079 8.57904C53.1241 8.57904 53.7881 9.24228 53.7881 10.0575C53.7887 10.8722 53.1247 11.536 52.3079 11.536ZM52.3079 8.81344C51.6209 8.81344 51.0624 9.37129 51.0624 10.0575C51.0624 10.7438 51.6209 11.3016 52.3079 11.3016C52.995 11.3016 53.5535 10.7438 53.5535 10.0575C53.5535 9.37129 52.995 8.81344 52.3079 8.81344Z" fill="#CCCCCC"/>
<path opacity="0.25" d="M29.4011 3.05812C29.1422 3.16472 28.8821 3.27738 28.6201 3.3967L23.9382 7.33613C23.9413 7.50027 24.065 7.64382 24.236 7.6626L24.4852 7.69107L30.4617 2.6626C30.1052 2.78313 29.751 2.91457 29.4011 3.05812Z" fill="white"/>
<path d="M58.3239 7.9152L61.1005 10.8698C60.8774 9.86251 60.5129 8.66445 59.912 7.37977C59.8016 7.14355 59.6864 6.91581 59.5664 6.69594C59.4226 6.58874 59.265 6.48698 59.0897 6.3937C58.6671 6.16899 58.2699 6.04058 57.9425 5.98486C57.9261 5.98183 57.9188 5.98183 57.88 5.97638V6.8401C57.88 7.23864 58.0474 7.62205 58.3239 7.9152Z" fill="#931B26"/>
<path d="M59.2565 6.22893C58.8338 6.00422 58.4354 5.89398 58.108 5.83886C57.9612 5.81403 57.8418 5.68865 57.8418 5.54025V4.19198C57.8418 4.17744 57.8248 4.16291 57.8139 4.14898C57.7629 4.08356 57.7259 4.01391 57.6871 3.94122V5.705C57.6871 5.8534 57.8017 5.97878 57.9479 6.00361C58.2747 6.05873 58.6646 6.16896 59.0873 6.39368C59.2625 6.48695 59.4226 6.58932 59.5663 6.69592C59.4851 6.54813 59.4032 6.40397 59.3189 6.26345C59.2977 6.25255 59.2777 6.24044 59.2565 6.22893Z" fill="#4D4D4D"/>
<path opacity="0.85" d="M50.2511 2.21984C49.5598 2.11869 47.5715 1.83886 45.625 1.67714C44.428 1.57781 43.268 1.50937 42.1468 1.46636V1.46576L42.0455 1.46273C41.558 1.44456 41.0765 1.43063 40.6041 1.42215C37.8645 1.3428 33.3524 1.43487 29.4018 3.05873C28.9009 3.26467 28.3964 3.49362 27.8804 3.7474L27.8767 3.74922C27.6821 3.84492 27.485 3.94486 27.2867 4.04722L27.2673 4.05691C26.7852 4.30706 26.291 4.57781 25.7768 4.87036C25.3511 5.11324 25.0291 5.30525 24.7939 5.45001C24.5374 5.60749 24.3391 5.83947 24.2214 6.11143C24.2554 6.08599 24.29 6.06176 24.3263 6.03935C24.5695 5.88853 24.903 5.68865 25.3432 5.43608C25.9812 5.07084 26.59 4.73832 27.1824 4.43668L26.4099 7.90912L27.1672 7.99574L27.8173 4.12233C28.2484 3.91518 28.6723 3.72499 29.0937 3.55055C33.1814 1.86127 37.8493 1.76557 40.6836 1.84855C41.0553 1.85582 41.4318 1.86551 41.812 1.87823L41.7744 6.62384L42.1274 6.59659L42.1455 1.88974C43.3474 1.93396 44.5923 2.00664 45.8785 2.11445C47.7564 2.27133 49.6714 2.53481 50.5015 2.65534L50.5033 2.51421C50.5046 2.36763 50.3972 2.24104 50.2511 2.21984Z" fill="#438689"/>
<path d="M39.8618 1.25195L38.7279 7.0757L41.7944 6.76982L41.8156 1.25316L39.8618 1.25195Z" fill="#4D4D4D"/>
<path d="M26.8768 4.13262L25.869 8.66381L26.7113 8.49059L27.5117 3.71893L26.8768 4.13262Z" fill="#535054"/>
<path d="M54.4388 2.30768C52.2443 1.92246 49.8672 1.59902 47.324 1.38279C45.4715 1.22531 43.7009 1.1393 42.0224 1.1072C40.7381 1.06904 39.0857 1.06782 37.2793 1.23076C38.6085 1.15807 39.8176 1.16534 40.8072 1.19502C42.4857 1.22712 44.2564 1.31313 46.1089 1.47061C48.652 1.68684 51.0291 2.01089 53.2236 2.3955C53.5261 2.44881 53.7196 2.74681 53.6456 3.04541C53.5704 3.35008 53.4649 3.68442 53.3157 4.03572C53.1241 4.48636 52.8991 4.87461 52.6718 5.20289C52.2764 5.77285 51.6409 6.12961 50.9496 6.18654L52.1406 6.10114C52.8415 6.05087 53.4867 5.69229 53.8869 5.11507C54.1143 4.78678 54.3393 4.39853 54.5309 3.9479C54.6801 3.5966 54.7862 3.26225 54.8608 2.95759C54.9348 2.65959 54.7413 2.36098 54.4388 2.30768Z" fill="#4A4A4A"/>
<path d="M41.7871 6.84552L50.9253 6.18895C50.9332 6.18834 50.9417 6.18713 50.9496 6.18652L41.8393 6.84128C41.8223 6.84249 41.8047 6.84431 41.7871 6.84552Z" fill="#535054"/>
<path d="M60.7234 20.2223C60.7222 20.1823 60.7197 20.1393 60.7173 20.0933C60.7191 20.1363 60.7216 20.1793 60.7234 20.2223Z" fill="#579988"/>
<path d="M60.7173 20.0932C60.6767 19.3234 60.5051 18.6026 60.2322 17.946C60.5942 18.831 60.69 19.6208 60.7173 20.0932Z" fill="#569687"/>
<path d="M52.8057 2.9091C52.4486 2.90788 52.092 2.90728 51.7349 2.90607C51.7349 2.97996 51.7355 3.05507 51.7355 3.12957C51.978 3.13017 52.2212 3.13078 52.4637 3.13199C52.525 3.13199 52.5711 3.18771 52.5595 3.24828C52.4941 3.59474 52.3782 4.05446 52.166 4.51842C52.0326 4.81097 51.8852 5.06476 51.7409 5.28099C51.7409 5.35913 51.7415 5.43787 51.7415 5.516C51.9756 5.23435 52.2648 4.82914 52.508 4.29613C52.7196 3.83217 52.8355 3.37245 52.9015 3.02599C52.9131 2.96542 52.867 2.9097 52.8057 2.9091Z" fill="#454545"/>
<path d="M51.7731 5.53236H51.5135C51.3795 5.53236 51.271 5.42394 51.271 5.29008V3.16834C51.271 3.02418 51.3886 2.90668 51.533 2.90668H51.7731V5.53236Z" fill="#5E5E5E"/>
<path d="M26.7125 2.59782L20.0598 6.47426C19.7251 6.66929 19.354 6.75651 18.9883 6.74197L18.6973 6.90248C18.6724 6.91581 18.6475 6.92853 18.6227 6.94125C19.0999 7.05209 19.6123 6.98365 20.0598 6.7232L27.5984 2.33071C27.7166 2.26166 27.8106 2.17262 27.881 2.07147C27.8543 2.08298 27.8276 2.09449 27.8009 2.106C27.4146 2.27801 27.0532 2.44155 26.7125 2.59782Z" fill="#545454"/>
<path opacity="0.75" d="M20.0604 6.47422L26.713 2.59778C24.0128 3.83763 22.6557 4.61595 20.6122 5.84793L18.9889 6.74193C19.3545 6.75647 19.7256 6.66925 20.0604 6.47422Z" fill="#63AAB6"/>
<path d="M20.1441 11.5548H18.892C18.7573 11.5548 18.6482 11.4458 18.6482 11.3113V11.2574C18.6482 11.1229 18.7573 11.0139 18.892 11.0139H20.1441C20.2788 11.0139 20.3879 11.1229 20.3879 11.2574V11.3113C20.3879 11.4464 20.2788 11.5548 20.1441 11.5548Z" fill="#E6E6E6"/>
<path d="M25.1868 7.9715L24.0013 8.69833C23.9649 8.72074 23.9437 8.75708 23.9437 8.79948V8.79645C23.9437 8.86368 23.9971 8.9291 24.065 8.9291H25.8447L25.1868 7.9715Z" fill="#4A4A4A"/>
<path d="M25.4542 8.61599C25.3681 8.43368 25.2499 8.18655 25.1589 8.0006C25.0698 7.82011 25.1092 7.60206 25.2541 7.46214C25.5179 7.20836 25.963 6.86917 26.6009 6.70866C27.2946 6.53422 27.8895 6.64809 28.246 6.76075C28.4716 6.83222 28.6754 6.96305 28.8245 7.14718C28.8858 7.22289 28.9464 7.31193 29.0004 7.41551C29.2053 7.81345 29.1847 8.19806 29.158 8.38583C29.152 8.42701 29.1392 8.46638 29.1204 8.50333L29.0798 8.59358C28.9901 8.76923 28.8094 8.89037 28.6117 8.89037H25.872C25.6926 8.89097 25.53 8.77771 25.4542 8.61599Z" fill="#EBEBEB"/>
<path d="M28.9997 7.41611C28.9645 7.34767 28.9263 7.28589 28.8863 7.23016C29.0276 7.58025 29.0088 7.9043 28.9851 8.07147C28.9791 8.11266 28.9663 8.15203 28.9475 8.18898L28.9069 8.28225C28.8172 8.4579 28.6365 8.59055 28.4388 8.59055C28.4388 8.59055 25.6925 8.89097 25.8707 8.89097H28.6104C28.8081 8.89097 28.9888 8.76984 29.0785 8.59419L29.1191 8.50939C29.1379 8.47244 29.1507 8.43004 29.1567 8.38946C29.184 8.2017 29.2046 7.81405 28.9997 7.41611Z" fill="#CCCCCC"/>
<path d="M25.7629 8.66141C25.6768 8.47909 25.5585 8.23621 25.467 8.05026C25.3778 7.86977 25.4172 7.65353 25.5622 7.51422C25.826 7.26044 26.271 6.92246 26.909 6.76195C27.3152 6.65959 27.6869 6.65656 27.9968 6.69472C27.6403 6.61416 27.1515 6.56934 26.5997 6.70865C25.9618 6.86916 25.5167 7.20653 25.2529 7.46092C25.108 7.60023 25.0686 7.81647 25.1577 7.99636C25.2493 8.1823 25.3675 8.42579 25.453 8.60871C25.5288 8.77043 25.6913 8.87522 25.8702 8.87522H25.9654C25.8793 8.82555 25.8065 8.75408 25.7629 8.66141Z" fill="white"/>
<path d="M58.6331 7.79946C58.3566 7.5057 58.1893 7.12229 58.1893 6.72496V6.0381C58.1122 6.0163 58.0207 5.99873 57.9425 5.98541C57.9261 5.98238 57.9188 5.98238 57.88 5.97693V6.84065C57.88 7.23859 58.0468 7.62199 58.3239 7.91515L61.1005 10.8697C61.0581 10.6771 61.0096 10.4772 60.9562 10.2713L58.6331 7.79946Z" fill="#801721"/>
<path d="M58.6331 7.7995L60.9561 10.2713C60.7294 9.40096 60.3977 8.41852 59.9119 7.37976C59.8016 7.14354 59.6864 6.9158 59.5663 6.69593C59.4226 6.58933 59.2649 6.48697 59.0897 6.39369C58.7683 6.22288 58.4603 6.1078 58.1892 6.03815V6.7244C58.1892 7.12234 58.3566 7.50574 58.6331 7.7995Z" fill="#931B26"/>
<path d="M60.0503 7.68378C59.8193 7.56385 59.5961 7.473 59.3887 7.40637C59.2923 7.37548 59.1941 7.44877 59.1941 7.54932V8.0369C59.1941 8.18287 59.2171 8.32703 59.259 8.46513L60.9556 10.2707C60.7513 9.48633 60.4614 8.61049 60.0503 7.68378Z" fill="#AB1F2C"/>
<path d="M63.1149 14.7922C62.9699 15.5197 62.6862 16.4228 62.1222 17.3489C61.6656 18.0987 61.1296 18.6917 60.5966 19.1587C60.6851 19.6027 60.7118 19.9727 60.7209 20.2174L61.1569 20.172C61.799 20.1048 62.3617 19.7044 62.6249 19.1151C62.8935 18.5136 63.1476 17.7256 63.227 16.7838C63.2913 16.0163 63.2234 15.3398 63.1149 14.7922Z" fill="#545454"/>
<path d="M9.20609 18.3689C8.60759 19.4149 7.48942 20.0551 6.28332 20.043L4.73765 20.0272C4.73825 20.0278 4.73825 20.0285 4.73825 20.0291C4.52359 20.0593 4.31682 20.0805 4.11671 20.0987C3.87901 20.1205 3.76561 20.4046 3.92509 20.5821C4.29863 20.9982 4.82012 21.2513 5.3786 21.2889L9.881 21.5917H9.91799L9.92284 21.5924C9.92284 21.5924 9.92284 21.5924 9.92284 21.5917H10.3425C10.1921 21.0872 10.1108 20.5524 10.1108 19.9988C10.1108 18.5905 10.6335 17.3046 11.4958 16.3234H10.3764L9.20609 18.3689Z" fill="#545454"/>
<path d="M61.1023 10.8704L58.3238 7.9158C58.0473 7.62204 57.88 7.23864 57.88 6.8413V5.96486C57.8029 5.92368 57.6865 5.83706 57.6865 5.70563V6.96547C57.6865 7.36341 57.8466 7.74681 58.1237 8.03997L61.1908 11.3143C61.189 11.3059 61.1896 11.2968 61.1878 11.2883C61.1611 11.1526 61.1338 11.0133 61.1023 10.8704Z" fill="#545454"/>
<path d="M40.0547 7.1066C39.9965 7.28891 39.3137 9.47728 39.2543 12.0321C39.1931 14.6753 39.4999 19.3598 39.5029 19.407L39.737 19.3919C39.7339 19.3452 39.4271 14.6705 39.489 12.0382C39.5502 9.41913 40.2742 7.19079 40.2815 7.16838L40.2852 7.15687L40.3064 6.95941C40.2263 6.9685 40.1469 6.97819 40.0669 6.98909L40.0547 7.1066Z" fill="#CCCCCC"/>
<path d="M40.9085 1.42757L40.9334 1.19741C40.8915 1.1968 40.8491 1.19559 40.8072 1.19498C40.7708 1.19377 40.7345 1.19317 40.6975 1.19196L40.6726 1.42272C40.7514 1.42454 40.8297 1.42575 40.9085 1.42757Z" fill="#535054"/>
<path d="M40.0918 6.76557L40.0675 6.98907C40.1469 6.97817 40.227 6.96787 40.307 6.95939L40.3307 6.74255C40.2512 6.74861 40.1712 6.75648 40.0918 6.76557Z" fill="#535054"/>
<path d="M40.307 6.9582L40.9456 1.08721L40.7097 1.086L40.0681 6.98788C40.1081 6.98242 40.2725 6.96244 40.307 6.9582Z" fill="#4A4A4A"/>
<path d="M22.1009 9.49182L22.0984 9.50091L22.0954 9.5106L22.0948 9.52029C21.9608 11.0412 21.9244 12.5857 21.9863 14.1096C22.0596 15.9219 22.2737 17.7444 22.6217 19.5263L22.831 19.4858C22.4847 17.7141 22.2725 15.9025 22.1991 14.1011C22.1379 12.5948 22.1736 11.069 22.3046 9.56572C22.27 9.55421 22.2355 9.54209 22.2009 9.52937C22.1676 9.51726 22.1342 9.50454 22.1009 9.49182Z" fill="#CCCCCC"/>
<path d="M23.2967 6.04901C23.2082 6.10534 23.1179 6.16228 23.0269 6.22042L22.101 9.49177C22.1343 9.50449 22.1677 9.51721 22.201 9.52933C22.2356 9.54205 22.2701 9.55355 22.3047 9.56567C22.3053 9.56022 22.3059 9.55416 22.3059 9.54871L23.2967 6.04901Z" fill="#4A4A4A"/>
<path d="M56.2385 4.35671L55.4169 13.817L55.6291 13.8352L56.4508 4.37488C56.5229 3.53721 56.4017 2.68015 56.0991 1.89699C55.9475 1.5039 55.7625 1.15926 55.5667 0.859438C55.4739 0.849141 55.3811 0.838239 55.2883 0.827942C55.5133 1.14835 55.7292 1.52873 55.9008 1.97331C56.1912 2.7274 56.3083 3.55114 56.2385 4.35671Z" fill="#CCCCCC"/>
<path d="M59.9526 13.6941L58.55 15.1417L58.7029 15.2895L60.043 13.9067C60.4256 13.5118 60.9519 13.2889 61.5019 13.2889H62.3818L62.2526 13.0763H61.4116C60.8622 13.0763 60.3352 13.2992 59.9526 13.6941Z" fill="#CCCCCC"/>
<path d="M15.7181 13.5409C19.2284 13.5409 22.0851 16.3356 22.1809 19.8183H22.1815C22.1827 19.7723 22.1833 19.7262 22.1833 19.6796C22.1833 16.1133 19.2885 13.2217 15.7181 13.2217C12.1477 13.2217 9.25281 16.1133 9.25281 19.6796C9.25281 19.7286 9.25402 19.7777 9.25523 19.8268C9.34619 16.3398 12.2047 13.5409 15.7181 13.5409Z" fill="white"/>
<path d="M60.5184 19.9576L60.5252 19.9564C60.5252 19.917 60.5246 19.877 60.5234 19.8376C60.5215 19.8782 60.5203 19.9182 60.5184 19.9576Z" fill="#068B9E"/>
<path d="M48.797 18.8867H21.6686V19.5269H48.797V18.8867Z" fill="white"/>
<path d="M54.9433 13.5408C51.3729 13.5408 48.478 16.4324 48.478 19.9987C48.478 20.5469 48.5465 21.0793 48.6757 21.5875H49.592C49.4422 21.0841 49.3615 20.5505 49.3615 19.9987C49.3615 16.9194 51.861 14.4233 54.9439 14.4233C58.0268 14.4233 60.5263 16.92 60.5263 19.9987C60.5263 20.092 60.5238 20.1847 60.5196 20.2767L61.1599 20.1811H61.1606C61.2448 20.1726 61.3273 20.1574 61.408 20.1374C61.4092 20.0914 61.4098 20.0454 61.4098 19.9987C61.4086 16.4324 58.5137 13.5408 54.9433 13.5408Z" fill="#E6E6E6"/>
<path d="M16.5628 8.31374L9.92957 12.473L10.0545 12.6717L16.6877 8.5124C16.8618 8.40338 16.9757 8.21561 16.9921 8.01089L17.0376 7.44275L16.7975 7.49605L16.7581 7.99151C16.7471 8.12294 16.6744 8.24348 16.5628 8.31374Z" fill="#CCCCCC"/>
<path d="M12.7298 14.9073L10.388 12.8098C10.1054 12.5566 9.74037 12.4167 9.36016 12.4167H5.86133L6.0293 12.2041H9.36077C9.79312 12.2041 10.2085 12.3628 10.5305 12.6511L12.8723 14.7486L12.7298 14.9073Z" fill="#CCCCCC"/>
<path d="M9.95563 10.0539C8.32931 10.7674 7.40579 11.5409 6.8655 12.5542C6.54048 13.1641 6.34522 13.642 6.24214 13.9261C6.20029 14.0418 6.31611 14.152 6.43254 14.1072C6.92977 13.9152 7.56041 13.5851 8.09464 13.3386C8.20925 13.2859 8.32264 13.2301 8.43361 13.1708C9.03514 12.8486 9.70944 12.4645 10.3492 12.0908C10.3589 11.9503 10.3686 11.8128 10.3777 11.6996C10.391 11.5221 10.4923 11.3628 10.6475 11.2756C11.1235 11.0066 12.1835 10.4627 12.919 10.4851L13.1949 9.21137C13.1943 9.21076 11.4407 9.40216 9.95563 10.0539Z" fill="#E6E6E6"/>
<path d="M6.44891 14.0085C6.5526 13.725 6.74725 13.2471 7.07227 12.6366C7.61256 11.6226 8.53608 10.8498 10.1624 10.1363C11.3218 9.62747 12.6449 9.39912 13.1695 9.32402L13.1937 9.21075C13.1937 9.21075 11.4407 9.40155 9.95502 10.0533C8.3287 10.7668 7.40518 11.5403 6.86489 12.5536C6.53987 13.1635 6.34461 13.6414 6.24152 13.9255C6.19968 14.0412 6.3155 14.1514 6.43193 14.1066C6.43678 14.1048 6.44224 14.1023 6.44709 14.1005C6.43799 14.0727 6.43678 14.0412 6.44891 14.0085Z" fill="#A6A6A6"/>
<path d="M10.9179 10.2926C9.78339 10.7904 9.13941 11.3295 8.76224 12.0369C8.53545 12.4628 8.1322 13.3561 8.1322 13.3561C8.1322 13.3561 9.24674 12.7559 9.61966 12.5839C9.69971 12.5469 9.77853 12.5082 9.85615 12.467C10.2758 12.2423 10.7463 11.974 11.192 11.7135C11.1987 11.6154 11.206 11.5197 11.212 11.4409C11.2211 11.3168 11.2921 11.2059 11.4006 11.1454C11.7329 10.9576 12.4721 10.5784 12.9851 10.5942L13.1773 9.70564C13.1767 9.70442 11.9536 9.83768 10.9179 10.2926Z" fill="#F2F2F2"/>
<path d="M10.7299 11.3162C11.1865 11.0581 12.1798 10.5475 12.9093 10.5264L12.9184 10.4846C12.1828 10.4621 11.1235 11.0061 10.6469 11.275C10.4916 11.3628 10.3904 11.5215 10.377 11.699C10.3685 11.8122 10.3582 11.9497 10.3485 12.0903C10.3782 12.0727 10.4079 12.0551 10.4376 12.0382C10.4449 11.931 10.4528 11.8286 10.4595 11.7408C10.4734 11.5627 10.5747 11.404 10.7299 11.3162Z" fill="#E8B162"/>
<path d="M12.9093 10.5263L12.9039 10.5517C12.9039 10.5517 11.7578 11.2646 10.4383 12.0375C10.4359 12.0684 10.4341 12.0999 10.4316 12.1314C11.7887 11.3385 12.9869 10.5929 12.9869 10.5929L13.0015 10.5257C12.9712 10.5251 12.9403 10.5257 12.9093 10.5263Z" fill="#FFC36C"/>
<path d="M12.9094 10.5263C12.1799 10.5481 11.1866 11.0587 10.73 11.3161C10.5748 11.404 10.4735 11.5626 10.4602 11.7401C10.4535 11.8279 10.4462 11.9303 10.4384 12.0375C11.7578 11.264 12.9039 10.5517 12.9039 10.5517L12.9094 10.5263Z" fill="#FFC36C"/>
<path d="M16.2257 8.58204C15.1021 8.69046 11.787 9.03631 10.0794 9.79888C8.20929 10.6341 7.14752 11.5384 6.52658 12.7244C6.15244 13.4385 5.92868 13.9969 5.80983 14.3289C5.76132 14.4639 5.89533 14.5929 6.02874 14.5403C6.65877 14.2931 7.29972 14.0236 7.94855 13.7304C11.1515 11.9988 13.748 10.4167 16.2888 8.76133C16.3743 8.70561 16.3276 8.57175 16.2257 8.58204ZM12.9039 10.5518C12.3836 10.8485 10.7973 11.8383 10.3486 12.0896C9.70949 12.4633 9.03458 12.8479 8.43305 13.1696C8.32208 13.2289 8.20869 13.2846 8.09408 13.3373C7.55986 13.5839 6.92922 13.914 6.43198 14.106C6.31556 14.1508 6.19974 14.0406 6.24158 13.9249C6.34527 13.6414 6.53992 13.1635 6.86494 12.553C7.40523 11.539 8.32875 10.7662 9.95507 10.0527C11.4407 9.40094 13.1938 9.21015 13.1938 9.21015L12.9039 10.5518Z" fill="#545454"/>
<path d="M35.4911 9.7795C35.9647 9.86672 36.4795 9.99271 37.0216 10.1738C37.2102 10.2368 37.3909 10.3028 37.5649 10.3713C37.631 10.1247 37.6965 9.87823 37.7626 9.63171C37.0052 9.68078 36.2485 9.72984 35.4911 9.7795Z" fill="#4D4D4D"/>
<path d="M37.3212 9.70866C37.3194 9.71109 37.3182 9.71412 37.3164 9.71654C37.1375 10.0218 36.8773 10.2683 36.565 10.4258C36.5087 10.4543 36.4644 10.4791 36.4498 10.4942C36.4141 10.5306 36.4395 10.5936 36.4899 10.5936H37.4752C37.7863 10.5936 38.0634 10.3846 38.1344 10.0824C38.135 10.0793 38.1356 10.0763 38.1362 10.0733C38.2065 9.75591 38.0919 9.34585 37.8815 9.29255C37.6838 9.24228 37.434 9.51605 37.3212 9.70866Z" fill="#4A4A4A"/>
<path d="M37.8171 9.87825H35.3625C35.2885 9.87825 35.2248 9.81587 35.2333 9.74258C35.2333 9.74197 35.2333 9.74137 35.2333 9.74076C35.2394 9.69049 35.2836 9.55239 35.9355 9.38522C36.266 9.30042 36.5431 9.26226 36.7747 9.23743C36.7747 9.23743 37.7292 9.13567 37.9596 9.33616C38.0766 9.43792 38.1021 9.55784 38.1021 9.55784C38.1027 9.56027 38.1027 9.56148 38.1033 9.56269C38.1355 9.72744 37.9948 9.87825 37.8171 9.87825Z" fill="#545454"/>
<path d="M48.8995 19.4064H21.5952V21.3252H48.8995V19.4064Z" fill="#E6E6E6"/>
<path d="M15.6927 13.5408C12.1223 13.5408 9.22742 16.4324 9.22742 19.9987C9.22742 20.5372 9.29412 21.0605 9.41843 21.5608L9.8811 21.5917H9.91809L9.92294 21.5923C9.92294 21.5923 9.92294 21.5923 9.92294 21.5917H10.3426C10.1922 21.0872 10.1109 20.5523 10.1109 19.9987C10.1109 16.9194 12.6104 14.4233 15.6933 14.4233C18.7761 14.4233 21.2757 16.92 21.2757 19.9987C21.2757 20.5523 21.1944 21.0872 21.044 21.5917H21.9603C22.0894 21.0823 22.1586 20.5487 22.1586 19.9987C22.1586 16.4324 19.2637 13.5408 15.6927 13.5408Z" fill="#E6E6E6"/>
<path d="M54.4388 2.30768C52.2443 1.92246 49.8672 1.59902 47.324 1.38279C45.4715 1.22531 43.7009 1.1393 42.0224 1.1072C40.7381 1.06904 39.0857 1.06782 37.2793 1.23076C38.6085 1.15807 39.8176 1.16534 40.8072 1.19502C42.4857 1.22712 44.2564 1.31313 46.1089 1.47061C48.652 1.68684 51.0291 2.01089 53.2236 2.3955C53.5261 2.44881 53.7196 2.74681 53.6456 3.04541C53.5704 3.35008 53.4649 3.68442 53.3157 4.03572C53.1241 4.48636 52.8991 4.87461 52.6718 5.20289C52.2764 5.77285 51.6409 6.12961 50.9496 6.18654L52.1406 6.10114C52.8415 6.05087 53.4867 5.69229 53.8869 5.11507C54.1143 4.78678 54.3393 4.39853 54.5309 3.9479C54.6801 3.5966 54.7862 3.26225 54.8608 2.95759C54.9348 2.65959 54.7413 2.36098 54.4388 2.30768Z" fill="#4A4A4A"/>
</svg>
