<svg width="72" height="70" viewBox="0 0 72 31" fill="none" xmlns="http://www.w3.org/2000/svg">
<g clip-path="url(#clip0_1_1918)">
<path fill-rule="evenodd" clip-rule="evenodd" d="M67.4791 9.6509C67.4001 10.2081 66.963 10.914 67.1071 11.038C67.2501 11.1609 67.5051 11.3751 67.5772 11.8797C67.7102 12.8127 67.2051 13.2489 67.8912 13.7585C68.6064 14.2899 68.4413 15.3716 68.2453 15.9972C67.9372 16.9847 64.8256 17.2435 63.6164 17.2812C62.9043 17.303 62.7342 16.6318 62.6672 15.9368C62.4962 14.1492 61.423 12.9297 59.5436 12.6382C53.5094 11.7012 56.1389 17.7254 54.3666 17.7263C51.6091 17.7263 38.3255 17.8542 35.771 17.6431C34.6888 17.5538 36.111 15.6433 34.5607 14.0133C33.3125 12.7006 30.53 12.2366 28.9536 13.1627C26.1871 14.7887 28.4445 17.5856 26.1241 17.4676C24.6798 17.3942 21.8393 17.191 21.9533 16.7557C22.1033 16.1856 22.5744 15.4728 22.2473 15.2983C21.9203 15.1238 21.7372 14.9096 21.8813 14.4367C22.0253 13.9638 22.2143 13.9638 22.4234 13.9251C22.6324 13.8864 22.8415 13.8924 22.8745 13.588C23.0405 12.0433 23.7546 11.848 25.0169 11.4742C26.3511 11.0786 35.1078 9.35446 35.1078 9.80656C35.1078 10.0108 35.0618 10.0624 35.1959 10.0624C35.3299 10.0624 37.0582 9.96817 37.5683 9.81251C38.0784 9.65685 38.4925 9.35247 40.6509 8.00508C42.8083 6.65768 43.6055 6.08759 43.9226 6.08759C44.2396 6.08759 54.0635 5.75744 55.4628 6.37908C56.8611 7.00073 61.431 9.30786 61.829 9.46352C63.1713 9.98503 67.5572 9.09668 67.4791 9.6509Z" fill="white"/>
<path fill-rule="evenodd" clip-rule="evenodd" d="M22.9455 13.7049C23.3146 13.7367 24.2417 13.8011 24.4088 13.6712C24.8829 13.3044 23.9147 12.4319 23.6436 12.1404C23.2635 11.731 23.0385 13.117 22.8475 13.586C22.7914 13.7238 22.7484 13.6891 22.9455 13.7049Z" fill="black"/>
<path fill-rule="evenodd" clip-rule="evenodd" d="M38.6815 9.54082L43.1934 6.36418C43.2664 6.31262 43.2504 6.18274 43.1244 6.26008C42.6823 6.5357 39.1436 8.72584 38.0814 9.40796C37.6874 9.66178 37.6844 9.60923 38.1434 9.64294C38.4885 9.66773 38.4265 9.72127 38.6815 9.54082Z" fill="black"/>
<path fill-rule="evenodd" clip-rule="evenodd" d="M44.8677 6.42963C45.7819 6.40485 48.4784 6.36221 49.6997 6.3632C50.3878 6.3632 50.2888 6.22936 50.3828 6.8054L50.8909 9.93048C50.9819 10.4916 51.0669 10.3608 50.4318 10.3667C48.5064 10.3836 41.9171 10.4351 40.6769 10.3747C40.4058 10.3618 40.4429 10.3766 40.6159 10.2418C40.955 9.97807 40.8269 9.35246 40.5969 9.12541C40.4449 8.97471 41.16 8.56821 41.9481 8.05067C43.0644 7.31699 44.4576 6.44054 44.8677 6.42963Z" fill="black"/>
<path fill-rule="evenodd" clip-rule="evenodd" d="M39.4297 9.91161C39.5797 9.99291 39.7727 10.0207 39.8127 9.85014C39.8358 9.74901 39.8228 9.64887 39.8057 9.58542C39.7517 9.37721 39.3387 9.86303 39.4297 9.91161Z" fill="black"/>
<path fill-rule="evenodd" clip-rule="evenodd" d="M51.198 6.92338L51.8581 9.88289C51.9961 10.5006 51.8601 10.3548 52.5632 10.3637C54.2116 10.3856 58.6974 10.4332 58.7614 10.3162C58.8395 10.1734 58.8725 10.0118 58.6764 9.8819C58.5214 9.77978 55.0887 7.62632 53.6384 6.71716C52.8103 6.19763 53.0823 6.31561 52.0791 6.34337C51.162 6.36816 51.0219 6.13616 51.198 6.92338Z" fill="black"/>
<path fill-rule="evenodd" clip-rule="evenodd" d="M55.6859 6.37115C55.6709 6.41379 55.6819 6.4822 55.8339 6.56151C56.0639 6.68148 60.4178 8.97076 61.415 9.42287C61.604 9.50813 61.605 9.51111 61.8101 9.48632C61.9681 9.46649 62.1181 9.4308 62.0871 9.40502C62.0411 9.36735 61.569 9.17005 61.569 9.17005C61.569 9.17005 59.9487 8.35407 59.6596 8.22419C58.3924 7.65311 57.0081 6.80541 55.7439 6.33348C55.7199 6.32356 55.7019 6.32753 55.6859 6.37115Z" fill="black"/>
<path fill-rule="evenodd" clip-rule="evenodd" d="M66.3639 11.7746C66.3409 12.1246 66.3049 12.8265 66.3599 13.1676C66.3989 13.4105 66.4359 13.357 66.642 13.3599C66.945 13.3649 67.4151 13.3857 67.4381 13.3163C67.4672 13.2291 67.5682 12.0621 67.5292 11.8093C67.4802 11.494 67.5562 11.5416 67.2851 11.5475C67.0891 11.5515 66.787 11.5575 66.586 11.5624C66.3249 11.5674 66.3809 11.5118 66.3639 11.7746Z" fill="black"/>
<path fill-rule="evenodd" clip-rule="evenodd" d="M58.8455 19.3751C60.6868 19.3751 62.1791 17.8959 62.1791 16.0706C62.1791 14.2453 60.6868 12.7661 58.8455 12.7661C57.0041 12.7661 55.5118 14.2453 55.5118 16.0706C55.5118 17.8949 57.0041 19.3751 58.8455 19.3751Z" fill="white"/>
<path fill-rule="evenodd" clip-rule="evenodd" d="M58.8454 18.1893C60.0257 18.1893 60.9829 17.2405 60.9829 16.0706C60.9829 14.9007 60.0257 13.9518 58.8454 13.9518C57.6652 13.9518 56.707 14.9007 56.707 16.0706C56.708 17.2405 57.6652 18.1893 58.8454 18.1893Z" fill="black"/>
<path fill-rule="evenodd" clip-rule="evenodd" d="M59.2785 14.2641C59.1955 14.5418 59.0005 15.2447 59.1695 15.2031C59.3785 15.1515 59.8886 14.5943 59.8886 14.4515C59.8886 14.3544 59.6186 14.2503 59.4485 14.1947C59.2855 14.1422 59.3215 14.1214 59.2785 14.2641Z" fill="white"/>
<path fill-rule="evenodd" clip-rule="evenodd" d="M60.3918 15.092C60.1427 15.2447 59.5246 15.6393 59.6786 15.7186C59.8687 15.8187 60.6238 15.7404 60.7198 15.6343C60.7858 15.5619 60.6538 15.3052 60.5648 15.1515C60.4788 15.0057 60.5198 15.0147 60.3918 15.092Z" fill="white"/>
<path fill-rule="evenodd" clip-rule="evenodd" d="M60.6188 16.4176C60.3297 16.371 59.6026 16.2669 59.6646 16.4265C59.7426 16.6258 60.3638 17.0581 60.5068 17.0402C60.6048 17.0283 60.6748 16.7487 60.7088 16.5752C60.7418 16.4087 60.7658 16.4414 60.6188 16.4176Z" fill="white"/>
<path fill-rule="evenodd" clip-rule="evenodd" d="M59.8536 17.6143C59.6966 17.3704 59.2885 16.7636 59.2105 16.9163C59.1125 17.1066 59.2035 17.8532 59.3125 17.9474C59.3865 18.0118 59.6426 17.877 59.7966 17.7858C59.9426 17.6995 59.9346 17.7392 59.8536 17.6143Z" fill="white"/>
<path fill-rule="evenodd" clip-rule="evenodd" d="M58.4583 17.8701C58.5024 17.5836 58.5994 16.8608 58.4393 16.9252C58.2393 17.0046 57.8102 17.6252 57.8292 17.766C57.8432 17.8622 58.1253 17.9296 58.3003 17.9613C58.4694 17.9921 58.4353 18.0168 58.4583 17.8701Z" fill="white"/>
<path fill-rule="evenodd" clip-rule="evenodd" d="M57.3242 17.0521C57.5672 16.8915 58.1713 16.4741 58.0143 16.3997C57.8203 16.3065 57.0691 16.4126 56.9771 16.5217C56.9141 16.597 57.0551 16.8479 57.1501 16.9986C57.2402 17.1423 57.2001 17.1344 57.3242 17.0521Z" fill="white"/>
<path fill-rule="evenodd" clip-rule="evenodd" d="M57.0531 15.6403C57.3361 15.7117 58.0533 15.8773 58.0043 15.7127C57.9443 15.5075 57.3622 15.0246 57.2181 15.0296C57.1191 15.0335 57.0261 15.3052 56.9761 15.4757C56.9291 15.6383 56.9071 15.6036 57.0531 15.6403Z" fill="white"/>
<path fill-rule="evenodd" clip-rule="evenodd" d="M57.8832 14.4475C58.0312 14.6974 58.4173 15.318 58.5013 15.1673C58.6064 14.9809 58.5423 14.2304 58.4373 14.1332C58.3653 14.0668 58.1043 14.1917 57.9472 14.277C57.7972 14.3593 57.8072 14.3196 57.8832 14.4475Z" fill="white"/>
<path fill-rule="evenodd" clip-rule="evenodd" d="M58.8514 16.9907C59.3785 16.9907 59.8066 16.5673 59.8066 16.0438C59.8066 15.5213 59.3795 15.097 58.8514 15.097C58.3233 15.097 57.8962 15.5203 57.8962 16.0438C57.8972 16.5673 58.3243 16.9907 58.8514 16.9907Z" fill="black"/>
<path fill-rule="evenodd" clip-rule="evenodd" d="M31.2671 19.2601C33.1085 19.2601 34.6008 17.7809 34.6008 15.9556C34.6008 14.1303 33.1085 12.6511 31.2671 12.6511C29.4258 12.6511 27.9335 14.1303 27.9335 15.9556C27.9335 17.7809 29.4258 19.2601 31.2671 19.2601Z" fill="white"/>
<path fill-rule="evenodd" clip-rule="evenodd" d="M31.2671 18.0744C32.4473 18.0744 33.4045 17.1255 33.4045 15.9556C33.4045 14.7857 32.4473 13.8369 31.2671 13.8369C30.0868 13.8369 29.1296 14.7857 29.1296 15.9556C29.1296 17.1255 30.0858 18.0744 31.2671 18.0744Z" fill="black"/>
<path fill-rule="evenodd" clip-rule="evenodd" d="M31.7001 14.1491C31.6171 14.4267 31.4221 15.1297 31.5901 15.0881C31.7992 15.0365 32.3093 14.4793 32.3093 14.3365C32.3093 14.2384 32.0392 14.1353 31.8692 14.0797C31.7071 14.0272 31.7422 14.0074 31.7001 14.1491Z" fill="white"/>
<path fill-rule="evenodd" clip-rule="evenodd" d="M32.8134 14.978C32.5643 15.1297 31.9462 15.5253 32.0992 15.6046C32.2903 15.7047 33.0444 15.6264 33.1404 15.5203C33.2064 15.4479 33.0744 15.1911 32.9854 15.0375C32.9004 14.8907 32.9404 14.8997 32.8134 14.978Z" fill="white"/>
<path fill-rule="evenodd" clip-rule="evenodd" d="M33.0395 16.3026C32.7514 16.256 32.0233 16.1519 32.0853 16.3115C32.1633 16.5108 32.7844 16.9431 32.9274 16.9252C33.0255 16.9133 33.0955 16.6347 33.1295 16.4603C33.1635 16.2947 33.1875 16.3264 33.0395 16.3026Z" fill="white"/>
<path fill-rule="evenodd" clip-rule="evenodd" d="M32.2753 17.4993C32.1182 17.2554 31.7102 16.6486 31.6312 16.8013C31.5331 16.9917 31.6241 17.7392 31.7332 17.8324C31.8072 17.8969 32.0642 17.762 32.2173 17.6708C32.3643 17.5845 32.3563 17.6242 32.2753 17.4993Z" fill="white"/>
<path fill-rule="evenodd" clip-rule="evenodd" d="M30.88 17.7551C30.924 17.4685 31.022 16.7458 30.861 16.8102C30.6609 16.8895 30.2319 17.5102 30.2509 17.651C30.2639 17.7481 30.5459 17.8145 30.7219 17.8463C30.89 17.878 30.857 17.9018 30.88 17.7551Z" fill="white"/>
<path fill-rule="evenodd" clip-rule="evenodd" d="M29.7458 16.9371C29.9888 16.7765 30.592 16.3591 30.4359 16.2847C30.2419 16.1915 29.4898 16.2976 29.3987 16.4067C29.3357 16.482 29.4768 16.7329 29.5718 16.8836C29.6618 17.0273 29.6218 17.0204 29.7458 16.9371Z" fill="white"/>
<path fill-rule="evenodd" clip-rule="evenodd" d="M29.4737 15.5253C29.7568 15.5967 30.4739 15.7622 30.4249 15.5967C30.3649 15.3914 29.7828 14.9086 29.6388 14.9145C29.5408 14.9185 29.4457 15.1902 29.3967 15.3607C29.3507 15.5233 29.3287 15.4886 29.4737 15.5253Z" fill="white"/>
<path fill-rule="evenodd" clip-rule="evenodd" d="M30.3039 14.3335C30.4519 14.5834 30.838 15.204 30.922 15.0533C31.0261 14.8669 30.963 14.1164 30.858 14.0192C30.786 13.9528 30.525 14.0777 30.3679 14.163C30.2189 14.2443 30.2279 14.2046 30.3039 14.3335Z" fill="white"/>
<path fill-rule="evenodd" clip-rule="evenodd" d="M31.2731 16.8767C31.8002 16.8767 32.2282 16.4523 32.2282 15.9298C32.2282 15.4073 31.8012 14.983 31.2731 14.983C30.745 14.983 30.3179 15.4063 30.3179 15.9298C30.3179 16.4523 30.746 16.8767 31.2731 16.8767Z" fill="black"/>
<path fill-rule="evenodd" clip-rule="evenodd" d="M71.7539 21.3481C70.5937 20.9734 65.7667 19.4188 64.5115 19.0519C64.2464 18.9746 64.2544 18.9746 63.9934 18.9756C60.9698 18.9855 27.9594 19.0162 24.2897 19.0202C23.8936 19.0202 24.0256 19.0787 23.7406 18.8298C23.0334 18.2102 20.803 16.251 20.0679 15.5372C19.7708 15.2477 19.8308 15.3409 19.8298 14.9384C19.8258 13.233 19.8058 5.66126 19.8028 4.53991C19.8028 4.37434 19.8388 4.4021 19.6958 4.39615C19.4187 4.38525 18.7016 4.36443 18.7176 4.43779C18.7356 4.52207 18.7786 16.7002 18.7746 18.3341C18.7746 18.5274 18.8206 18.5215 18.6306 18.5383C18.5196 18.5483 18.3835 18.5364 18.3835 18.4223C18.3835 18.2459 18.4375 5.50461 18.4465 3.2639C18.4535 1.69541 13.8196 2.01566 12.9845 2.07415C8.25355 2.4053 7.64143 2.32202 6.58423 3.25994C5.52702 4.19786 2.67947 7.5718 1.47323 10.68C0.269999 13.7883 0.250996 14.0827 0.0649594 15.8475C-0.121077 17.6123 0.110968 18.2746 0.473039 18.459C0.835109 18.6434 0.101967 21.135 0.649073 21.3918C1.19618 21.6495 1.3072 21.943 1.06615 21.9252C0.825107 21.9073 0.240994 21.833 0.156977 22.2464C0.0739612 22.6598 -0.0010534 24.3701 0.267999 24.7102C0.537051 25.0503 1.94733 25.0324 2.15137 24.8847C2.3554 24.738 2.20738 24.4802 2.91151 24.4802C3.51463 24.4802 5.56103 24.4802 6.14214 24.4802C6.38619 24.4802 6.27417 24.5059 6.23016 24.3642C6.21616 24.3186 6.22416 24.2769 6.30217 24.2769C6.4262 24.2769 6.88929 24.2918 7.13533 24.2997C7.33437 24.3057 7.26936 24.3424 7.34638 24.1698C7.4714 23.8883 7.80546 23.2379 8.34757 22.8978C9.05271 22.4566 16.4361 22.4378 16.6032 22.4378C17.1503 22.4378 18.1675 23.1675 18.2125 23.1615C18.2825 23.1526 18.5185 23.1457 18.5556 23.2101C18.5926 23.2746 18.8846 25.6769 19.0146 25.4835C19.1447 25.2902 19.1907 23.9478 19.1907 23.4976C19.1907 23.0475 19.0326 23.1754 19.4777 23.1754C19.9228 23.1754 36.8971 23.221 36.8971 23.221C36.8971 23.221 43.9645 24.4346 43.9645 24.5446C43.9645 24.6547 43.7795 25.7304 44.0015 25.4181C44.2245 25.1058 44.2616 24.5724 44.6876 24.5902C45.1137 24.6081 47.0901 25.0314 47.0901 25.0314L55.6328 23.1923C55.6328 23.1923 56.651 23.1536 57.1101 23.2012C57.3571 23.227 57.3111 23.224 57.3811 23.4213C57.5741 23.9606 58.2463 25.6461 58.4153 25.4627C58.6103 25.2515 57.9612 23.2012 58.2763 23.1913C58.5223 23.1843 59.5185 23.223 59.9416 23.2408C60.1827 23.2508 60.1346 23.3003 60.1266 23.0713C60.1176 22.8115 60.1026 22.3257 60.1006 22.0303C60.0986 21.6823 60.0486 21.7309 60.3347 21.7269C61.1698 21.716 64.1954 21.6753 64.9866 21.6971C65.1496 21.7011 65.1596 21.6674 65.2306 21.8022C65.2946 21.9242 65.3927 22.1344 65.4457 22.2504C65.4917 22.3505 65.4607 22.3327 65.5697 22.3337L65.9598 22.3376C65.9888 22.3376 65.9838 22.3337 65.9838 22.3634L65.9798 22.5726C65.9778 22.6698 65.9588 22.6579 66.0528 22.6579H67.034C67.139 22.6579 67.128 22.6787 67.125 22.5795L67.122 21.7437C67.122 21.7437 69.2724 21.7537 69.5045 21.7864C69.6905 21.8122 70.9727 22.2395 71.4748 22.408C71.7229 22.4913 71.6599 22.526 71.7349 22.2851L71.9279 21.6714C72.026 21.367 72.068 21.4493 71.7539 21.3481Z" fill="white"/>
<path fill-rule="evenodd" clip-rule="evenodd" d="M14.9539 4.17204C15.664 4.1661 15.518 4.10661 15.529 4.75899C15.569 7.18113 15.742 11.3909 13.1355 11.9927C11.8603 12.2871 10.385 12.3328 8.84567 13.2568C7.9865 13.7724 3.04554 15.5639 2.72347 14.5487C2.40941 13.5562 2.69047 12.1692 3.03254 11.1906C3.52963 9.76884 4.44781 7.49542 4.95391 6.88567C7.09332 4.3049 11.7912 4.19782 14.9539 4.17204Z" fill="black"/>
<path d="M2.4305 22.3684L6.10322 22.2861C7.0394 20.8147 8.53869 17.9187 10.5921 17.9187C11.4923 17.9187 16.6073 17.8999 16.6073 17.8999C16.6073 17.8999 16.8393 3.35413 16.7743 3.35413C13.8717 3.35413 6.34726 3.23218 4.57692 5.99737C3.90079 7.05526 2.06443 10.3648 1.80438 12.3506C1.3773 15.6126 1.80038 19.1511 2.4305 22.3684Z" stroke="black" stroke-width="0.5935" stroke-miterlimit="22.9256" stroke-linecap="round" stroke-linejoin="round"/>
<path fill-rule="evenodd" clip-rule="evenodd" d="M14.2607 14.863H15.4299C15.708 14.863 15.935 15.089 15.935 15.3647C15.935 15.6403 15.708 15.8653 15.4299 15.8653H14.2607C13.9827 15.8653 13.7556 15.6403 13.7556 15.3647C13.7556 15.089 13.9827 14.863 14.2607 14.863Z" fill="black"/>
<path fill-rule="evenodd" clip-rule="evenodd" d="M16.1231 18.1041H16.8792C17.0593 18.1041 17.2063 18.2498 17.2063 18.4283C17.2063 18.6067 17.0593 18.7525 16.8792 18.7525H16.1231C15.943 18.7525 15.796 18.6067 15.796 18.4283C15.796 18.2498 15.943 18.1041 16.1231 18.1041Z" fill="#B6B6B7"/>
<path fill-rule="evenodd" clip-rule="evenodd" d="M20.2409 19.1679H20.997C21.1771 19.1679 21.3241 19.3137 21.3241 19.4921C21.3241 19.6706 21.1771 19.8163 20.997 19.8163H20.2409C20.0608 19.8163 19.9138 19.6706 19.9138 19.4921C19.9148 19.3137 20.0618 19.1679 20.2409 19.1679Z" fill="#B6B6B7"/>
<path fill-rule="evenodd" clip-rule="evenodd" d="M62.9202 19.2443H63.6764C63.8564 19.2443 64.0034 19.39 64.0034 19.5685C64.0034 19.7469 63.8564 19.8927 63.6764 19.8927H62.9202C62.7402 19.8927 62.5931 19.7469 62.5931 19.5685C62.5931 19.39 62.7402 19.2443 62.9202 19.2443Z" fill="#B6B6B7"/>
<path fill-rule="evenodd" clip-rule="evenodd" d="M1.1622 18.7019C1.45726 18.7019 1.69831 18.9408 1.69831 19.2333V20.9109C1.69831 21.2034 1.45726 21.4423 1.1622 21.4423C0.867145 21.4423 0.626099 21.2034 0.626099 20.9109V19.2333C0.626099 18.9408 0.867145 18.7019 1.1622 18.7019Z" fill="black"/>
<path fill-rule="evenodd" clip-rule="evenodd" d="M19.9298 4.57458H20.812C20.881 4.57458 20.937 4.63011 20.937 4.69852V6.7211C20.937 6.78951 20.881 6.84503 20.812 6.84503H19.9298C19.8608 6.84503 19.8048 6.78951 19.8048 6.7211V4.69852C19.8048 4.63011 19.8608 4.57458 19.9298 4.57458Z" fill="#B6B6B7"/>
<path fill-rule="evenodd" clip-rule="evenodd" d="M14.4698 0H15.1329C15.3869 0 15.594 0.206224 15.594 0.457063V1.68647C15.594 1.93831 15.3859 2.14354 15.1329 2.14354H14.4698C14.2157 2.14354 14.0087 1.93731 14.0087 1.68647V0.457063C14.0077 0.206224 14.2157 0 14.4698 0Z" fill="#B6B6B7"/>
<path d="M23.9866 24.8936H33.4665C33.5325 24.8936 33.5875 24.84 33.5875 24.7736V23.1189C33.5875 23.0534 33.5335 22.9989 33.4665 22.9989H23.9866C23.9206 22.9989 23.8656 23.0524 23.8656 23.1189V24.7736C23.8656 24.84 23.9196 24.8936 23.9866 24.8936Z" fill="white" stroke="white" stroke-width="0.3561" stroke-miterlimit="22.9256" stroke-linecap="round" stroke-linejoin="round"/>
<path fill-rule="evenodd" clip-rule="evenodd" d="M45.0718 23.22C45.5769 23.2319 46.6031 23.1685 46.5991 23.2666C46.5941 23.3727 46.478 23.9835 46.256 23.9517C46.07 23.925 45.1908 23.7524 44.9097 23.6979C44.7987 23.6761 44.8167 23.7019 44.8507 23.5879L44.9387 23.2954C44.9707 23.1903 44.9557 23.2171 45.0718 23.22Z" fill="black"/>
<path fill-rule="evenodd" clip-rule="evenodd" d="M44.2056 23.3102C44.1806 23.4272 44.1356 23.6067 44.0956 23.6067C44.0526 23.6067 42.8783 23.3945 42.2642 23.2735C41.7231 23.1674 41.8461 23.1942 42.2692 23.1922C42.8683 23.1902 43.4674 23.1774 44.0636 23.2031C44.2366 23.2111 44.2356 23.1714 44.2056 23.3102Z" fill="black"/>
<path fill-rule="evenodd" clip-rule="evenodd" d="M66.3969 20.5995H67.043C67.0981 20.5995 67.1441 20.6442 67.1441 20.6997V22.3257C67.1441 22.3802 67.0991 22.4258 67.043 22.4258H66.3969C66.3419 22.4258 66.2959 22.3812 66.2959 22.3257V20.6997C66.2959 20.6452 66.3409 20.5995 66.3969 20.5995Z" fill="#B6B6B7"/>
<path d="M57.5011 16.7378L53.7784 19.4376M60.4197 16.6595L64.0374 19.16M29.9228 16.6228L24.3207 19.3999M32.6183 16.5762L36.6931 19.4554" stroke="white" stroke-width="2.9676" stroke-miterlimit="22.9256" stroke-linecap="round" stroke-linejoin="round"/>
<path fill-rule="evenodd" clip-rule="evenodd" d="M52.1922 31C49.4467 31 47.2202 28.793 47.2202 26.0714C47.2202 23.3499 49.4467 21.1429 52.1922 21.1429C54.9387 21.1429 57.1642 23.3499 57.1642 26.0714C57.1642 28.793 54.9387 31 52.1922 31Z" fill="white"/>
<path fill-rule="evenodd" clip-rule="evenodd" d="M52.1681 29.8241C50.0277 29.8241 48.2914 28.1039 48.2914 25.9812C48.2914 23.8585 50.0267 22.1383 52.1681 22.1383C54.3086 22.1383 56.0449 23.8585 56.0449 25.9812C56.0449 28.1039 54.3096 29.8241 52.1681 29.8241Z" fill="black"/>
<path fill-rule="evenodd" clip-rule="evenodd" d="M52.2212 27.4327C51.368 27.4327 50.6769 26.7476 50.6769 25.9019C50.6769 25.0562 51.369 24.3711 52.2212 24.3711C53.0743 24.3711 53.7645 25.0562 53.7645 25.9019C53.7645 26.7476 53.0743 27.4327 52.2212 27.4327Z" fill="white"/>
<path d="M52.1682 29.3601C50.2858 29.3601 48.7595 27.8481 48.7595 25.9822C48.7595 24.1163 50.2858 22.6043 52.1682 22.6043C54.0506 22.6043 55.5758 24.1163 55.5758 25.9822C55.5758 27.8472 54.0506 29.3601 52.1682 29.3601Z" stroke="#232222" stroke-width="0.9239" stroke-miterlimit="22.9256"/>
<path fill-rule="evenodd" clip-rule="evenodd" d="M52.1751 22.9166C51.9491 22.9166 51.765 22.7352 51.765 22.5111C51.765 22.287 51.9481 22.1046 52.1751 22.1046C52.4021 22.1046 52.5842 22.2861 52.5842 22.5111C52.5842 22.7352 52.4011 22.9166 52.1751 22.9166Z" fill="white"/>
<path fill-rule="evenodd" clip-rule="evenodd" d="M48.6864 26.4036C48.4604 26.4036 48.2773 26.2221 48.2773 25.9971C48.2773 25.773 48.4594 25.5916 48.6864 25.5916C48.9125 25.5916 49.0965 25.773 49.0965 25.9971C49.0965 26.2221 48.9125 26.4036 48.6864 26.4036Z" fill="white"/>
<path fill-rule="evenodd" clip-rule="evenodd" d="M55.7159 26.4125C55.4898 26.4125 55.3058 26.2311 55.3058 26.007C55.3058 25.783 55.4888 25.6005 55.7159 25.6005C55.9419 25.6005 56.1259 25.782 56.1259 26.007C56.1249 26.2301 55.9419 26.4125 55.7159 26.4125Z" fill="white"/>
<path fill-rule="evenodd" clip-rule="evenodd" d="M49.6156 23.9011C49.3906 23.9011 49.2065 23.7197 49.2065 23.4946C49.2065 23.2696 49.3896 23.0881 49.6156 23.0881C49.8417 23.0881 50.0257 23.2696 50.0257 23.4946C50.0257 23.7197 49.8427 23.9011 49.6156 23.9011Z" fill="white"/>
<path fill-rule="evenodd" clip-rule="evenodd" d="M54.8587 28.7563C54.6326 28.7563 54.4486 28.5749 54.4486 28.3508C54.4486 28.1268 54.6316 27.9443 54.8587 27.9443C55.0857 27.9443 55.2688 28.1258 55.2688 28.3508C55.2688 28.5749 55.0847 28.7563 54.8587 28.7563Z" fill="white"/>
<path fill-rule="evenodd" clip-rule="evenodd" d="M54.6727 23.9646C54.4466 23.9646 54.2626 23.7832 54.2626 23.5591C54.2626 23.335 54.4456 23.1526 54.6727 23.1526C54.8997 23.1526 55.0827 23.334 55.0827 23.5591C55.0817 23.7832 54.8987 23.9646 54.6727 23.9646Z" fill="white"/>
<path fill-rule="evenodd" clip-rule="evenodd" d="M49.5006 28.7157C49.2756 28.7157 49.0916 28.5343 49.0916 28.3102C49.0916 28.0861 49.2746 27.9037 49.5006 27.9037C49.7267 27.9037 49.9107 28.0851 49.9107 28.3102C49.9107 28.5343 49.7267 28.7157 49.5006 28.7157Z" fill="white"/>
<path fill-rule="evenodd" clip-rule="evenodd" d="M52.2212 26.8438C51.6961 26.8438 51.271 26.4224 51.271 25.9019C51.271 25.3814 51.6961 24.96 52.2212 24.96C52.7453 24.96 53.1714 25.3814 53.1714 25.9019C53.1714 26.4224 52.7453 26.8438 52.2212 26.8438Z" fill="black"/>
<path fill-rule="evenodd" clip-rule="evenodd" d="M12.8885 31C10.1429 31 7.9165 28.793 7.9165 26.0714C7.9165 23.3499 10.1429 21.1429 12.8885 21.1429C15.635 21.1429 17.8604 23.3499 17.8604 26.0714C17.8604 28.793 15.635 31 12.8885 31Z" fill="white"/>
<path fill-rule="evenodd" clip-rule="evenodd" d="M12.8655 29.8241C10.7251 29.8241 8.98877 28.1039 8.98877 25.9812C8.98877 23.8585 10.7241 22.1383 12.8655 22.1383C15.0069 22.1383 16.7423 23.8585 16.7423 25.9812C16.7423 28.1039 15.0059 29.8241 12.8655 29.8241Z" fill="black"/>
<path fill-rule="evenodd" clip-rule="evenodd" d="M12.9175 27.4327C12.0643 27.4327 11.3732 26.7476 11.3732 25.9019C11.3732 25.0562 12.0653 24.3711 12.9175 24.3711C13.7706 24.3711 14.4608 25.0562 14.4608 25.9019C14.4608 26.7476 13.7706 27.4327 12.9175 27.4327Z" fill="white"/>
<path d="M12.8655 29.3601C10.9841 29.3601 9.45679 27.8481 9.45679 25.9822C9.45679 24.1163 10.9831 22.6043 12.8655 22.6043C14.7478 22.6043 16.2731 24.1163 16.2731 25.9822C16.2721 27.8472 14.7468 29.3601 12.8655 29.3601Z" stroke="#232222" stroke-width="0.9239" stroke-miterlimit="22.9256"/>
<path fill-rule="evenodd" clip-rule="evenodd" d="M12.8715 22.9166C12.6455 22.9166 12.4614 22.7352 12.4614 22.5111C12.4614 22.287 12.6445 22.1046 12.8715 22.1046C13.0976 22.1046 13.2806 22.2861 13.2806 22.5111C13.2806 22.7352 13.0986 22.9166 12.8715 22.9166Z" fill="white"/>
<path fill-rule="evenodd" clip-rule="evenodd" d="M9.38283 26.4036C9.15679 26.4036 8.97375 26.2221 8.97375 25.9971C8.97375 25.773 9.15579 25.5916 9.38283 25.5916C9.60888 25.5916 9.79291 25.773 9.79291 25.9971C9.79291 26.2221 9.60988 26.4036 9.38283 26.4036Z" fill="white"/>
<path fill-rule="evenodd" clip-rule="evenodd" d="M16.4122 26.4125C16.1861 26.4125 16.0021 26.2311 16.0021 26.007C16.0021 25.783 16.1851 25.6005 16.4122 25.6005C16.6382 25.6005 16.8222 25.782 16.8222 26.007C16.8222 26.2301 16.6382 26.4125 16.4122 26.4125Z" fill="white"/>
<path fill-rule="evenodd" clip-rule="evenodd" d="M10.313 23.9011C10.088 23.9011 9.90393 23.7197 9.90393 23.4946C9.90393 23.2696 10.087 23.0881 10.313 23.0881C10.5391 23.0881 10.7231 23.2696 10.7231 23.4946C10.7231 23.7197 10.5391 23.9011 10.313 23.9011Z" fill="white"/>
<path fill-rule="evenodd" clip-rule="evenodd" d="M15.555 28.7563C15.3289 28.7563 15.1449 28.5749 15.1449 28.3508C15.1449 28.1268 15.3279 27.9443 15.555 27.9443C15.781 27.9443 15.9651 28.1258 15.9651 28.3508C15.9651 28.5749 15.781 28.7563 15.555 28.7563Z" fill="white"/>
<path fill-rule="evenodd" clip-rule="evenodd" d="M15.3689 23.9646C15.1429 23.9646 14.9589 23.7832 14.9589 23.5591C14.9589 23.335 15.1419 23.1526 15.3689 23.1526C15.596 23.1526 15.779 23.334 15.779 23.5591C15.779 23.7832 15.595 23.9646 15.3689 23.9646Z" fill="white"/>
<path fill-rule="evenodd" clip-rule="evenodd" d="M10.197 28.7157C9.972 28.7157 9.78796 28.5343 9.78796 28.3102C9.78796 28.0861 9.971 27.9037 10.197 27.9037C10.4231 27.9037 10.6071 28.0851 10.6071 28.3102C10.6071 28.5343 10.4231 28.7157 10.197 28.7157Z" fill="white"/>
<path fill-rule="evenodd" clip-rule="evenodd" d="M12.9175 26.8438C12.3924 26.8438 11.9673 26.4224 11.9673 25.9019C11.9673 25.3814 12.3924 24.96 12.9175 24.96C13.4416 24.96 13.8677 25.3814 13.8677 25.9019C13.8677 26.4224 13.4416 26.8438 12.9175 26.8438Z" fill="black"/>
</g>
<defs>
<clipPath id="clip0_1_1918">
<rect width="72" height="31" fill="white"/>
</clipPath>
</defs>
</svg>
