<svg width="18" height="18" viewBox="0 0 18 18" fill="none" xmlns="http://www.w3.org/2000/svg">
<path d="M9.00005 13.5L7.50005 10.5L2.25005 7.875C2.17825 7.84209 2.1174 7.78926 2.07474 7.72279C2.03208 7.65631 2.0094 7.57899 2.0094 7.5C2.0094 7.42101 2.03208 7.34369 2.07474 7.27721C2.1174 7.21074 2.17825 7.15791 2.25005 7.125L15.7501 2.25L13.5743 8.2755M14.2501 13.5V13.5075M15.8408 15.0908C16.1555 14.7761 16.3699 14.3752 16.4568 13.9387C16.5436 13.5022 16.4991 13.0498 16.3288 12.6386C16.1586 12.2275 15.8702 11.876 15.5002 11.6288C15.1301 11.3815 14.6951 11.2495 14.2501 11.2495C13.805 11.2495 13.37 11.3815 12.9999 11.6288C12.6299 11.876 12.3415 12.2275 12.1713 12.6386C12.001 13.0498 11.9565 13.5022 12.0433 13.9387C12.1302 14.3752 12.3446 14.7761 12.6593 15.0908C12.9728 15.405 13.5031 15.8745 14.2501 16.5C15.0383 15.8325 15.5693 15.363 15.8408 15.0908Z" stroke="#D0C9C9" stroke-width="2" stroke-linecap="round" stroke-linejoin="round"/>
</svg>
