<svg width="15" height="15" viewBox="0 0 15 15" fill="none" xmlns="http://www.w3.org/2000/svg">
<path d="M8.58375 13.635C10.2178 12.1969 13.125 9.25875 13.125 6.5625C13.125 5.07066 12.5324 3.63992 11.4775 2.58502C10.4226 1.53013 8.99184 0.9375 7.5 0.9375C6.00816 0.9375 4.57742 1.53013 3.52252 2.58502C2.46763 3.63992 1.875 5.07066 1.875 6.5625C1.875 9.25875 4.78125 12.1969 6.41625 13.635C6.71448 13.9012 7.10025 14.0483 7.5 14.0483C7.89975 14.0483 8.28552 13.9012 8.58375 13.635ZM7.5 3.75C7.62432 3.75 7.74355 3.79939 7.83146 3.88729C7.91936 3.9752 7.96875 4.09443 7.96875 4.21875V5.625H9.375C9.49932 5.625 9.61855 5.67439 9.70646 5.76229C9.79436 5.8502 9.84375 5.96943 9.84375 6.09375C9.84375 6.21807 9.79436 6.3373 9.70646 6.42521C9.61855 6.51311 9.49932 6.5625 9.375 6.5625H7.96875V7.96875C7.96875 8.09307 7.91936 8.2123 7.83146 8.30021C7.74355 8.38811 7.62432 8.4375 7.5 8.4375C7.37568 8.4375 7.25645 8.38811 7.16854 8.30021C7.08064 8.2123 7.03125 8.09307 7.03125 7.96875V6.5625H5.625C5.50068 6.5625 5.38145 6.51311 5.29354 6.42521C5.20564 6.3373 5.15625 6.21807 5.15625 6.09375C5.15625 5.96943 5.20564 5.8502 5.29354 5.76229C5.38145 5.67439 5.50068 5.625 5.625 5.625H7.03125V4.21875C7.03125 4.09443 7.08064 3.9752 7.16854 3.88729C7.25645 3.79939 7.37568 3.75 7.5 3.75Z" fill="#D0C9C9"/>
</svg>
